<?xml version="1.0" standalone="no"?>
<!DOCTYPE svg PUBLIC "-//W3C//DTD SVG 1.1//EN" "http://www.w3.org/Graphics/SVG/1.1/DTD/svg11.dtd" >
<!--
2013-9-30: Created.
-->
<svg>
<metadata>
Created by iconfont
</metadata>
<defs>

<font id="iconfont" horiz-adv-x="1024" >
  <font-face
    font-family="iconfont"
    font-weight="500"
    font-stretch="normal"
    units-per-em="1024"
    ascent="896"
    descent="-128"
  />
    <missing-glyph />
    
    <glyph glyph-name="x" unicode="x" horiz-adv-x="1001"
d="M281 543q-27 -1 -53 -1h-83q-18 0 -36.5 -6t-32.5 -18.5t-23 -32t-9 -45.5v-76h912v41q0 16 -0.5 30t-0.5 18q0 13 -5 29t-17 29.5t-31.5 22.5t-49.5 9h-133v-97h-438v97zM955 310v-52q0 -23 0.5 -52t0.5 -58t-10.5 -47.5t-26 -30t-33 -16t-31.5 -4.5q-14 -1 -29.5 -0.5
t-29.5 0.5h-32l-45 128h-439l-44 -128h-29h-34q-20 0 -45 1q-25 0 -41 9.5t-25.5 23t-13.5 29.5t-4 30v167h911zM163 247q-12 0 -21 -8.5t-9 -21.5t9 -21.5t21 -8.5q13 0 22 8.5t9 21.5t-9 21.5t-22 8.5zM316 123q-8 -26 -14 -48q-5 -19 -10.5 -37t-7.5 -25t-3 -15t1 -14.5
t9.5 -10.5t21.5 -4h37h67h81h80h64h36q23 0 34 12t2 38q-5 13 -9.5 30.5t-9.5 34.5q-5 19 -11 39h-368zM336 498v228q0 11 2.5 23t10 21.5t20.5 15.5t34 6h188q31 0 51.5 -14.5t20.5 -52.5v-227h-327z" />
    

    
    <glyph glyph-name="yidong" unicode="&#59009;" d="M416.324 729.085c-27.033 0-49.152-22.118-49.152-49.152 0-27.033 22.119-49.152 49.152-49.152 27.034 0 49.152 22.119 49.152 49.152 0 27.034-21.708 49.152-49.152 49.152zM613.752 630.781c27.033 0 49.152 22.119 49.152 49.152 0 27.034-22.119 49.152-49.152 49.152-27.034 0-49.152-22.118-49.152-49.152 0-27.033 21.708-49.152 49.152-49.152zM416.324 532.068c-27.033 0-49.152-22.119-49.152-49.152 0-27.034 22.119-49.152 49.152-49.152 27.034 0 49.152 22.118 49.152 49.152 0 27.033-21.708 49.152-49.152 49.152zM613.752 532.068c-27.034 0-49.152-22.119-49.152-49.152 0-27.034 22.118-49.152 49.152-49.152 27.033 0 49.152 22.118 49.152 49.152 0 27.033-22.119 49.152-49.152 49.152zM416.324 335.05c-27.033 0-49.152-22.118-49.152-49.152s22.119-49.152 49.152-49.152c27.034 0 49.152 22.118 49.152 49.152s-21.708 49.152-49.152 49.152zM613.752 335.05c-27.034 0-49.152-22.118-49.152-49.152s22.118-49.152 49.152-49.152c27.033 0 49.152 22.118 49.152 49.152s-22.119 49.152-49.152 49.152zM416.324 137.623c-27.033 0-49.152-22.119-49.152-49.152 0-27.034 22.119-49.152 49.152-49.152 27.034 0 49.152 22.118 49.152 49.152 0 27.033-21.708 49.152-49.152 49.152zM613.752 137.623c-27.034 0-49.152-22.119-49.152-49.152 0-27.034 22.118-49.152 49.152-49.152 27.033 0 49.152 22.118 49.152 49.152 0 27.033-22.119 49.152-49.152 49.152z"  horiz-adv-x="1024" />

    
    <glyph glyph-name="skype" unicode="&#58949;" d="M670.281 288.585q0 28.562-11.154 52.297t-27.721 39.132-41.728 28.013-47.14 19.42-49.994 13.129l-59.429 13.714q-17.152 3.987-25.16 5.998t-20.005 6.583-17.152 9.143-9.436 11.995-4.279 17.152q0 43.996 82.286 43.996 24.576 0 43.996-6.84t30.866-16.274 21.723-19.126 22.857-16.567 27.429-6.84q26.843 0 43.154 18.287t16.275 43.995q0 31.415-32 56.869t-81.152 38.582-104.01 13.13q-38.838 0-75.446-8.85t-68.28-26.844-50.87-49.7-19.127-73.436q0-34.853 10.862-60.855t32-43.154 45.714-27.721 58.843-18.579l83.42-20.553q51.42-12.58 64-20.553 18.286-11.447 18.286-34.304 0-22.272-22.858-36.864t-60.013-14.555q-29.148 0-52.297 9.142t-37.157 22.016-26.002 25.71-26.295 22.016-30.866 9.143q-28.563 0-43.155-17.152t-14.555-42.862q0-52.553 69.705-90.002t166.29-37.413q41.728 0 79.982 10.57t69.998 30.573 50.578 53.431 18.87 75.154z m207.433-124.014q0-90.843-64.292-155.136t-155.136-64.292q-74.277 0-133.705 45.714-43.996-9.143-85.724-9.143-81.7 0-156.27 31.708t-128.585 85.723T68.28 227.73 36.57 384q0 41.728 9.143 85.723Q0 529.152 0 603.43q0 90.843 64.293 155.136t155.136 64.292q74.276 0 133.705-45.714 43.995 9.143 85.723 9.143 81.7 0 156.27-31.708t128.585-85.723 85.723-128.585T841.143 384q0-41.728-9.143-85.723 45.714-59.429 45.714-133.706z"  horiz-adv-x="1024" />

    
    <glyph glyph-name="zhanghaoxinxi" unicode="&#58950;" d="M502.664 824.91c123.771 0 224.11-98.682 224.11-220.435 0-121.737-100.338-220.451-224.11-220.451s-224.11 98.714-224.11 220.451c-0.015 121.753 100.34 220.436 224.11 220.436z m0 0c123.771 0 224.11-98.682 224.11-220.435 0-121.737-100.338-220.451-224.11-220.451s-224.11 98.714-224.11 220.451c-0.015 121.753 100.34 220.436 224.11 220.436z m-84.049-514.385H605.4c159.883 0 289.488-127.478 289.488-284.743v-18.355c0-61.972-129.62-64.337-289.488-64.337H418.615c-159.882 0-289.504 0.064-289.504 64.337v18.355c0 157.265 129.622 284.743 289.504 284.743z"  horiz-adv-x="1024" />

    
    <glyph glyph-name="subgroup" unicode="&#58951;" d="M253.579 68.245c-29.074-29.074-29.074-79.952 0-109.025 29.073-29.073 79.951-29.073 109.024 0L769.63 380.782c29.073 29.074 29.073 79.952-7.268 116.293L348.067 875.028C318.993 904.101 268.115 904.101 239.042 867.76c-29.073-29.074-29.073-79.952 7.268-109.025l356.148-319.806-348.88-370.684z"  horiz-adv-x="1024" />

    
    <glyph glyph-name="search" unicode="&#58952;" d="M905.846-112.246l-330.83 322.954c-55.14-31.508-118.154-55.139-189.047-55.139-196.923 0-362.338 157.539-362.338 354.462 0 189.046 165.415 354.461 362.338 354.461 196.923 0 362.339-157.538 362.339-354.461 0-70.893-23.631-133.908-63.016-189.046l330.831-322.954-110.277-110.277zM385.97 785.724c-157.538 0-283.569-126.032-283.569-275.693s126.03-275.693 283.57-275.693S669.537 360.37 669.537 510.031 543.508 785.723 385.97 785.723z"  horiz-adv-x="1024" />

    
    <glyph glyph-name="qq" unicode="&#58953;" d="M999.5 219.673l-2.592 18.537-3.318 18.083-2.637 9.292-2.54 9.88-3.367 9.434-3.456 10.493-3.95 9.884-4.314 10.156-7.681 16.58-6.814 14.613-6.818 13.058-5.955 12.185-6.812 11.085-4.998 10.177-10.59 15.199-13.314 20.245-3.093 4.998-1.048 2.137v1.676l2.229 6.843 3.092 6.088 2.678 12.02 1.503 6.205v6.41l0.772 5.152v5.182l-0.772 5.954-0.87 4.86-1.956 9.86-2.54 9.593-2.321 8.791-3.634 8.546-4.09 7.134-3.23 6.706-3.586 6.384-5.638 9.41-2.085 3.336-0.64 2.908-2.59 18.246-1.682 12.022-1.912 14.877-2.954 15.384-4.635 17.629-2.632 9.884-2.096 8.362-2.908 9.726-3.271 10.334-3.276 9.588-4.176 10.314-8.545 19.927-5.045 9.43-6.087 10.815-5.73 9.277-5.724 10.493-8.096 9.725-6.813 9.425-8.32 9.726-8.454 8.817-8.546 8.52-10.13 8.836-5.315 3.18-5.04 4.41-10.911 7.744-12.63 8.386-12.904 7.585-13.315 6.844-14.54 6.245-13.62 5.95-14.22 5.177-15.542 4.248-14.22 3.792-15.13 3.321-14.312 3.501-15.456 1.682-15.133 1.84-15.082 1.978h-45.176l-15.308-0.89-14.361-1.998-14.311-1.973-14.55-2.433-14.403-2.75-13.637-3.341-13.631-4.4-12.674-4.412-12.676-4.247-12.726-6.25-11.996-5.02L358.04 852.2l-11.092-6.833-10.221-7.136-10.084-8.04-8.32-7.476-13.044-12.292-10.815-11.428-10.36-11.085-9.5-11.27-8.904-11.541-7.815-11.244-7.585-11.25-3.547-5.02-3.27-6.09-7.095-10.656-5.637-10.637-4.999-10.038-4.365-10.636-4.267-9.72-3.547-9.134-3.271-9.726-3.322-8.97-4.41-16.269-3.227-15.66-1.772-13.089-1.82-11.264v-21.885l-3.092-3.363-2.816-4.57-2.224-4.088-1.911-4.4-2.413-9.594-2.632-8.817-0.864-7.88-0.587-5.796v-6.226l-6.092-8.836-4.314-8.817-3.271-8.494-2.412-7.61-1.866-7.294-1.774-6.859v-17.474l1.048-4.252 1.498-7.77 1.86-5.927-3.363-2.592-9.547-7.135-12.583-11.54-7.728-6.844-7.54-6.7-5.181-5.341-4.268-4.702-9.184-9.885-8.725-9.884-6.818-8.52-8.177-12.318-7.815-11.086-7.728-12.338-6.496-11.402-5.402-12.14-5.73-11.263-4.18-11.09-4.406-11.562-3.27-11.245-3.23-11.565-2.863-10.039-1.59-10.8-1.773-10.016-1.498-9.746-0.889-19.02v-25.538l0.91-7.77 2.407-13.226 0.864-5.816 1.59-5.908 1.957-5.597 1.82-3.946 2.907-7.32 2.228-1.496 1.36-3.092 1.728-0.726h1.773l7.59 0.726 7.722 1.998 6.497 2.592 6.813 4.406 6.225 4.088 5.637 5.361 6.092 5.592 5.132 5.77 4.907 6.542 4.452 5.908 4.18 4.907 2.591 5.638 5.086 9.27 1.59 3.798 0.909 2.27 0.455 2.59 1.18 2.137 0.91 0.455 1.728 0.91h1.089l0.454-0.91h0.864l0.864-0.455 2.861-12.61 3.093-10.175 4.134-10.682 4.176-9.588 3.5-9.547 5.409-8.357 3.95-8.816 4.452-8.09 5.132-7.003 3.91-6.725 10.354-12.45 9.042-11.092 8.724-8.632 8.591-7.77 7.452-6.091 11.085-9.86 4.457-2.182 1.498-2.085v-1.048l-1.043-0.956h-0.434l-2.229-0.73-8.315-0.63-7.723-1.047-6.5-0.91-6.82-1.497-5.953-1.865-5.908-1.82-5.178-2.775-4.093-2.545-5.224-1.677-3.27-2.724-3.502-2.142-3.772-3.04-4.728-5.914-1.773-2.77-2.182-2.407-3-6.226-1.63-5.182-1.958-5.177-0.41-4.544v-8.546l-0.863-4.222v-4.319l-1.048-4.22v-3.772l1.048-4.135 0.864-3.68 2.366-7.09 1.63-3.362 2.096-3.363 2.316-3.322 2.544-2.908 3.41-3.318 2.545-2.724 7.544-5.637 7.584-4.727 8.68-4.268 9.362-3.818 9.905-4.084 10.999-2.55 10.952-3.68 11.863-2.453 11.816-1.774 12.18-1.865 12.59-1.825 24.807-2.586 25.585-0.455h45.308l11.086 0.455 9.501 1.089 9.175 0.73 8.59 0.767 13.81 2.73 9.951 2.724 9.456 2.453 17.45 7.32 7.911 3 7.539 3.817 12.455 6.997 11.224 5.637 8.315 5.315 6.087 5.638 9.502-1.043 7.36-0.823 14.545-1.048h12.583l4.406-0.91 4.503-1.819 7.134-2.586 7.948-2.73 15.133-4.726 15.45-5.633 15.042-4.36 15.175-3.097 15.497-3.905 16.043-2.315 15.22-1.682 15.267-2.136 14.264-1.364 15.267-0.864h42.355l13.63 1.636 13.36 0.587 12.859 2.136 11.864 2.632 11.862 2.55 11.362 2.72 4.727 1.364 5.27 1.728 9.864 3.905 8.765 4.089 8.275 4.267 7.723 4.457 6.812 5.131 2.678 2.776 3.23 3.767 4.14 5.044 4.493 6.225 1.64 3.138 0.727 2.637 1.9 3.364 0.73 3.634v3.5l0.916 3.501-0.915 5.132-0.73 4.41-1.901 5.183-1.498 4.268-2.821 5.182-3.404 4.723-3.277 4.094-4.406 3.455-9.086 7.907-10.177 7.63-10.267 6.087-10.815 6.23-24.722 12.175-5.909 3.639-1.635 1.676-1.048 1.094 11.91 12 5.136 5.91 4.268 5.452 8.315 12.041 7.86 12.318 6.635 10.952 6.27 10.494 8.408 20.99 6.543 17.454 4.312 12.359 2.5 4.089 1.497 3.316 2.592 2.003h1.088l0.731-0.454 6.364-12.63 5.678-12.179 4.001-6.86 4.13-5.907 4.09-7.273 5.269-7.18 4.406-5 2.677-2.723 2.637-2.454 2.408-1.82 2.32-1.68 5.09-2.592 2.633-0.91h4.135l2.678 0.91 3.322 1.681 3.68 1.682 3.046 2.724 2.862 3.18 3.225 3.95 2.546 3.047 2.862 4.91 2.14 3.946 2.54 5.597 1.365 4.728 3.68 11.545 2.408 12.768 1.722 14.157 1.186 8.224v23.11l-1.799 16.448z m0 0"  horiz-adv-x="1024" />

    
    <glyph glyph-name="usergroup" unicode="&#58954;" d="M390.095 559.543a243.81 243.81 0 1 1 487.62 0 243.81 243.81 0 1 1-487.62 0z m458.362-248.686c-58.514-48.762-131.657-82.895-214.552-82.895-82.895 0-160.915 34.133-219.429 87.771-73.143-92.647-117.028-199.923-117.028-316.952 0-24.381 0-53.638 4.876-78.02 102.4-24.38 214.552-39.009 331.58-39.009 112.153 0 219.43 14.629 321.83 39.01 4.876 24.38 4.876 53.638 4.876 78.019 0 117.029-39.01 224.305-112.153 312.076z m-507.124 92.648c-24.38 48.762-39.01 102.4-39.01 160.914 0 131.657 78.02 248.686 190.172 297.448C458.362 881.37 419.352 891.124 380.343 891.124c-131.657 0-243.81-107.276-243.81-243.81 0-126.78 87.772-229.18 204.8-243.81z m-175.543-4.876C92.648 310.857 53.638 198.705 53.638 86.552c0-24.38 0-53.638 4.876-78.019 48.762-14.628 102.4-19.504 156.038-29.257 0 121.905 39.01 238.934 107.277 341.334-63.39 9.752-117.029 39.009-156.039 78.019z"  horiz-adv-x="1024" />

    
    <glyph glyph-name="delete" unicode="&#58955;" d="M505.219 489.113L118.675 875.656c-27.125 27.125-67.814 27.125-94.94 0-27.126-27.126-27.126-67.815 0-94.94l386.543-386.544L23.735 7.63c-27.126-27.126-27.126-67.814 0-94.94 27.126-27.126 67.815-27.126 94.94 0L505.22 299.232l386.543-386.543c27.125-27.126 67.814-27.126 94.94 0 27.126 27.126 27.126 67.814 0 94.94L600.159 394.172l386.543 386.543c27.126 27.126 27.126 67.815 0 94.94-27.126 27.126-67.815 27.126-94.94 0L505.219 489.114z"  horiz-adv-x="1024" />

    
    <glyph glyph-name="preview" unicode="&#58956;" d="M1565.258 376.686c-190.171-307.2-468.114-497.372-782.628-497.372-314.515 0-592.458 190.172-782.629 497.372C190.172 691.2 468.115 896 782.63 896c314.514 0 592.457-197.486 782.628-519.314zM782.631 98.743c160.914 0 292.571 131.657 292.571 292.571S943.544 683.886 782.63 683.886 490.058 552.229 490.058 391.314 621.715 98.743 782.631 98.743z"  horiz-adv-x="1609" />

    
    <glyph glyph-name="message_failure" unicode="&#58957;" d="M1006.933 699.733c8.534 8.534 17.067 25.6 17.067 34.134 0 17.066-8.533 25.6-17.067 34.133L896 878.933C887.467 887.467 870.4 896 861.867 896c-17.067 0-25.6-8.533-34.134-17.067L512 563.2 196.267 878.933C187.733 887.467 170.667 896 162.133 896c-17.066 0-25.6-8.533-34.133-17.067L17.067 768C8.533 759.467 0 742.4 0 733.867c0-17.067 8.533-25.6 17.067-34.134L332.8 384 17.067 68.267C8.533 59.733 0 42.667 0 34.133s8.533-25.6 17.067-34.133L128-110.933c8.533-8.534 25.6-17.067 34.133-17.067 17.067 0 25.6 8.533 34.134 17.067L512 204.8l315.733-315.733c8.534-8.534 25.6-17.067 34.134-17.067 17.066 0 25.6 8.533 34.133 17.067L1006.933 0c8.534 8.533 17.067 25.6 17.067 34.133s-8.533 25.6-17.067 34.134L691.2 384l315.733 315.733z"  horiz-adv-x="1024" />

    
    <glyph glyph-name="message_attention" unicode="&#58958;" d="M614.4-32c0-25.6-12.8-44.8-32-64-19.2-19.2-44.8-25.6-70.4-25.6s-51.2 6.4-70.4 25.6c-19.2 19.2-32 38.4-32 64V403.2c0 25.6 12.8 44.8 32 64 19.2 19.2 44.8 25.6 70.4 25.6s51.2-6.4 70.4-25.6c19.2-19.2 32-38.4 32-64V-32zM512 652.8c-38.4 0-64 12.8-89.6 38.4-25.6 25.6-38.4 51.2-38.4 83.2s12.8 64 38.4 83.2S480 896 512 896s64-12.8 89.6-38.4S640 806.4 640 774.4s-12.8-64-38.4-83.2c-25.6-25.6-51.2-38.4-89.6-38.4z"  horiz-adv-x="1024" />

    
    <glyph glyph-name="error" unicode="&#58959;" d="M512.013-128c-71.324 0-137.553 12.736-198.687 40.756-61.134 25.473-117.174 63.682-163.025 109.533-45.85 45.85-81.512 99.343-109.532 163.024S0.013 312.677 0.013 384s12.736 137.552 40.756 198.687S104.451 699.86 150.301 745.71s99.344 81.513 163.025 109.533C374.46 880.716 440.69 896 512.013 896s137.552-12.736 198.686-40.756c61.135-25.473 117.174-63.682 163.025-109.533 45.85-45.85 81.513-99.343 109.533-163.024s40.756-127.364 40.756-198.687-12.737-137.552-40.756-198.687S919.575 68.14 873.724 22.29c-45.85-45.851-99.343-81.513-163.025-109.533-61.134-28.02-127.363-40.756-198.686-40.756zM746.36 529.194c5.095 5.095 7.642 10.19 7.642 17.83s-2.547 12.737-7.642 17.832L692.868 615.8c-5.094 5.095-10.189 7.642-17.83 7.642s-12.737-2.547-17.831-7.642L509.465 468.06 361.725 615.8c-5.095 5.095-10.19 7.642-17.832 7.642s-12.736-2.547-17.83-7.642l-53.493-50.945c-5.095-5.095-5.095-10.19-5.095-17.831s2.548-12.736 5.095-17.831l147.741-147.741L272.57 233.71c-5.095-5.094-5.095-10.189-5.095-17.83 0-7.642 2.548-12.737 5.095-17.831l53.492-50.946c5.095-5.094 10.19-7.641 17.831-7.641s12.737 2.547 17.831 7.641l147.741 147.742 147.742-147.742c5.094-5.094 10.189-7.641 17.83-7.641s12.737 2.547 17.831 7.641l53.493 50.946c5.095 5.094 7.642 10.189 7.642 17.83 0 7.642-2.547 12.737-7.642 17.831L598.62 381.453 746.36 529.194z"  horiz-adv-x="1029" />

    
    <glyph glyph-name="more" unicode="&#58960;" d="M276.48 885.76L737.28 384l-399.36-501.76L51.2-128l419.84 501.76L0 896z m716.8 0L1454.08 384l-399.36-501.76L768-128l419.84 501.76L716.8 896z"  horiz-adv-x="1536" />

    
    <glyph glyph-name="message_success" unicode="&#58961;" d="M1374.642 693.045l-811.82-802.595c-9.225-9.225-27.675-18.45-36.9-18.45-18.45 0-27.676 9.225-36.901 18.45l-18.45 18.45L18.533 351.713c-9.225 9.225-18.45 18.45-18.45 36.9s9.225 27.676 18.45 36.902l110.703 110.702c9.225 9.225 27.676 18.45 36.9 18.45s27.677-9.225 36.902-18.45L516.696 222.56l664.217 654.99C1190.138 886.776 1208.588 896 1217.813 896s27.676-9.225 36.901-18.45l110.703-110.703c9.225-9.225 18.45-18.45 18.45-36.901s0-27.676-9.225-36.901z"  horiz-adv-x="1396" />

    
    <glyph glyph-name="info" unicode="&#58962;" d="M512-128c-73.143 0-138.971 14.629-197.486 36.571C248.686-62.17 197.486-25.6 153.6 18.286S73.143 120.686 43.886 179.2 7.314 310.857 7.314 376.686c0 73.143 14.629 138.971 36.572 197.485S109.714 691.2 153.6 735.086 256 815.543 314.514 844.8C380.343 874.057 446.171 881.371 512 881.371S650.971 866.743 709.486 844.8c65.828-29.257 117.028-65.829 160.914-109.714s80.457-102.4 109.714-160.915 36.572-131.657 36.572-197.485c0-73.143-14.629-138.972-36.572-197.486S914.286 62.171 870.4 18.286 768-62.171 709.486-91.43C650.97-113.37 585.143-128 512-128z m0 804.571c-21.943 0-36.571-7.314-51.2-21.942-14.629-14.629-21.943-29.258-21.943-51.2 0-21.943 7.314-36.572 21.943-51.2 14.629-14.629 29.257-21.943 51.2-21.943s36.571 7.314 51.2 21.943c14.629 14.628 21.943 29.257 21.943 51.2 0 21.942-7.314 36.571-21.943 51.2-14.629 14.628-29.257 21.942-51.2 21.942z m58.514-277.942c0 14.628-7.314 29.257-14.628 36.571S533.943 449.829 512 449.829s-29.257-7.315-43.886-14.629-14.628-21.943-14.628-36.571v-263.315c0-14.628 7.314-29.257 14.628-36.571s21.943-14.629 43.886-14.629 29.257 7.315 43.886 14.629 14.628 21.943 14.628 36.571V398.63z"  horiz-adv-x="1024" />

    
    <glyph glyph-name="xiaoxizhongxin" unicode="&#58963;" d="M766.525 870.141H257.474c-115.015 0-208.141-93.882-208.141-209.744v-407.442c0-115.87 93.025-209.8 207.838-209.8h94.758l122.37-137.98c10.165-11.525 27.837-11.772 38.403-0.681l131.909 138.663h121.94c115.141 0 208.116 93.828 208.116 209.8v407.44c0 115.835-93.202 209.744-208.142 209.744z m-490.96-261.355h400.117c14.46 0 26.182-11.847 26.182-26.433 0-14.579-11.722-26.427-26.182-26.427H275.566c-14.455 0-26.203 11.848-26.203 26.427 0 14.586 11.748 26.433 26.203 26.433z m472.84-229.044H275.57c-14.46 0-26.208 11.82-26.208 26.43 0 14.58 11.748 26.409 26.208 26.409h472.833c14.46 0 26.182-11.828 26.182-26.409-0.004-14.61-11.727-26.43-26.18-26.43z m0 0"  horiz-adv-x="1024" />

    
    <glyph glyph-name="operation" unicode="&#58964;" d="M0 384a512 512 0 1 1 1024 0A512 512 0 1 1 0 384z m2048 0a512 512 0 1 1 1024 0 512 512 0 1 1-1024 0z m2048 0a512 512 0 1 1 1024 0 512 512 0 1 1-1024 0z"  horiz-adv-x="5120" />

    
    <glyph glyph-name="emptyusergroup" unicode="&#58965;" d="M619.055 295.564c-134.982 0-242.037 111.709-242.037 246.69s107.055 246.691 242.037 246.691c134.981 0 242.036-111.709 242.036-246.69S754.036 295.564 619.055 295.564z m0 446.836c-107.055 0-195.491-88.436-195.491-200.145S512 342.109 619.054 342.109s195.491 88.436 195.491 200.146S730.764 742.4 619.055 742.4z m0-833.164c-102.4 0-204.8 13.964-302.546 37.237l-13.964 4.654v13.964c-4.654 27.927-4.654 51.2-4.654 74.473 0 107.054 37.236 214.109 111.709 302.545l13.964 18.618 18.618-18.618c51.2-46.545 116.363-74.473 181.527-74.473s130.327 23.273 181.527 69.819l18.619 13.963 13.963-18.618c69.818-88.436 107.055-190.836 107.055-297.89 0-23.274 0-46.546-4.655-74.474v-13.963l-13.963-4.655c-107.055-23.273-204.8-32.582-307.2-32.582zM344.436-16.29c181.528-41.89 367.71-41.89 549.237 0 0 18.618 4.654 37.236 4.654 51.2 0 88.436-27.927 176.873-83.782 251.346-55.854-41.891-121.018-65.164-190.836-65.164-69.818 0-139.636 23.273-195.49 69.818-55.855-79.127-83.783-167.564-83.783-256-4.654-13.964-4.654-32.582 0-51.2z m55.855 386.327l-46.546 9.31c-116.363 18.618-204.8 121.018-204.8 242.036 0 134.982 107.055 246.69 242.037 246.69 41.89 0 79.127-9.308 111.709-27.927l41.89-23.272-41.89-18.618c-97.746-46.546-158.255-144.291-158.255-251.346 0-46.545 9.31-93.09 32.582-134.982l23.273-41.89z m-9.31 446.837c-107.054 0-195.49-88.437-195.49-200.146 0-79.127 51.2-153.6 121.018-181.527-13.964 32.582-18.618 69.818-18.618 107.055 0 107.054 55.854 209.454 144.29 269.963-18.617 4.655-32.581 4.655-51.2 4.655zM265.31-6.982l-27.927 4.655c-51.2 4.654-97.746 13.963-144.291 23.272L79.127 25.6v13.964c-4.654 23.272-4.654 51.2-4.654 74.472 0 107.055 37.236 209.455 107.054 297.891l13.964 18.618 18.618-18.618c37.236-32.582 79.127-55.854 130.327-65.163l32.582-4.655-18.618-27.927c-60.51-93.091-93.09-190.837-93.09-297.891v-23.273z m-144.29 69.818c32.581-4.654 60.508-13.963 97.745-18.618 4.654 93.091 32.581 186.182 83.781 269.964-37.236 9.309-69.818 27.927-97.745 51.2-55.855-74.473-83.782-162.91-83.782-251.346-4.654-18.618 0-37.236 0-51.2z"  horiz-adv-x="1024" />

    
    <glyph glyph-name="edit" unicode="&#58966;" d="M28.193 226.337L0.937-114.372l340.709 27.257 456.55 456.55-313.453 306.638-456.55-449.736zM661.912 860.056L546.07 744.215l313.452-306.638L968.55 546.604c61.328 61.327 6.814 204.425-47.7 258.938C866.338 866.87 750.497 941.826 661.913 860.056z"  horiz-adv-x="1024" />

    
    <glyph glyph-name="calendar" unicode="&#58967;" d="M943.543 800.914h-51.2V815.543C892.343 859.429 855.77 896 811.886 896 768 896 731.429 859.429 731.429 815.543v-14.629H292.57V815.543C292.571 859.429 256 896 212.114 896c-43.885 0-80.457-36.571-80.457-80.457v-14.629h-51.2C36.571 800.914 0 764.343 0 720.457v-768C0-91.429 36.571-128 80.457-128h863.086c43.886 0 80.457 36.571 80.457 80.457v768c0 43.886-36.571 80.457-80.457 80.457zM768 815.543c0 29.257 21.943 51.2 51.2 51.2s51.2-21.943 51.2-51.2v-146.286c0-29.257-21.943-51.2-51.2-51.2S768 640 768 669.257V815.543z m-607.086 0c0 29.257 21.943 51.2 51.2 51.2s51.2-21.943 51.2-51.2v-146.286c0-29.257-21.943-51.2-51.2-51.2s-51.2 21.943-51.2 51.2V815.543z m782.629-877.714H80.457c-7.314 0-14.628 7.314-14.628 14.628v563.2H958.17v-563.2c0-7.314-7.314-14.628-14.628-14.628zM182.857 405.943h146.286V332.8H182.857z m256 0h146.286V332.8H438.857z m256 0h146.286V332.8H694.857z m-512-153.6h146.286v-65.829H182.857z m256 0h146.286v-65.829H438.857z m256 0h146.286v-65.829H694.857z m-512-138.972h146.286v-80.457H182.857z m256 0h146.286v-80.457H438.857z m256 0h146.286v-80.457H694.857z"  horiz-adv-x="1024" />

    
    <glyph glyph-name="back" unicode="&#58968;" d="M0 777.846C0 844.8 51.2 896 118.154 896h787.692C972.8 896 1024 844.8 1024 777.846v-787.692C1024-76.8 972.8-128 905.846-128H118.154C51.2-128 0-76.8 0-9.846V777.846z m634.092-208.738c15.754 15.754 15.754 43.323 0 59.077s-43.323 15.753-59.077 0L354.462 399.754C338.708 384 338.708 356.43 358.4 336.738l224.492-204.8c15.754-15.753 43.323-15.753 59.077 3.939 15.754 15.754 15.754 43.323-3.938 59.077L445.046 368.246l189.046 200.862z"  horiz-adv-x="1024" />

    
    <glyph glyph-name="attention" unicode="&#58969;" d="M512.013 896C440.689 896 374.46 883.264 313.326 855.244 252.192 829.77 196.152 791.562 150.301 745.71S68.79 646.368 40.77 582.687 0.013 455.323 0.013 384s12.736-137.552 40.756-198.687S104.451 68.14 150.301 22.29c45.851-45.851 99.344-81.513 163.025-109.533C374.46-112.716 440.69-128 512.013-128s137.552 12.736 198.686 40.756c61.135 25.473 117.174 63.682 163.025 109.533 45.85 45.85 81.513 99.343 109.533 163.024s40.756 127.364 40.756 198.687-12.737 137.552-40.756 198.687S919.575 699.86 873.724 745.71c-45.85 45.851-99.343 81.513-163.025 109.533C649.565 883.264 583.336 896 512.013 896z m0-797.294c-15.284 0-30.567 5.095-40.756 17.831s-17.831 25.473-17.831 40.757 5.094 30.567 17.83 40.756 25.473 17.83 40.757 17.83 30.567-5.094 40.756-17.83c10.189-10.19 17.83-25.473 17.83-40.756s-5.094-30.568-17.83-40.757c-10.19-12.736-25.473-17.83-40.756-17.83zM570.6 353.433c0-15.284-5.095-30.567-17.831-40.756-10.19-10.19-25.473-17.831-40.756-17.831s-30.567 5.094-40.756 17.83c-10.19 10.19-17.831 25.473-17.831 40.757V628.537c0 15.284 5.094 30.567 17.83 40.757 10.19 10.189 25.473 17.83 40.757 17.83s30.567-5.094 40.756-17.83c10.189-10.19 17.83-25.473 17.83-40.757v-275.104z"  horiz-adv-x="1029" />

    
    <glyph glyph-name="contact" unicode="&#58970;" d="M681.358 500.52c12.646-15.052 26.196-30.407 40.646-46.064a19361.862 19361.862 0 0 1 40.198-46.067 5686.745 5686.745 0 0 1 45.611-51.487c19.873-22.88 36.282-43.354 49.23-61.418 12.947-18.067 23.18-34.624 30.71-49.68 7.528-15.055 12.645-28.906 15.354-41.551 2.71-12.646 4.066-25.29 4.066-37.936v-58.71c0-18.064-3.01-34.322-9.031-48.777-6.021-14.45-14.305-26.945-24.84-37.484-10.538-10.539-22.58-18.666-36.13-24.386-13.55-5.72-27.85-8.584-42.907-8.584H236.958c-16.259 0-31.763 2.713-46.516 8.132-14.755 5.417-27.698 13.097-38.84 23.034-11.138 9.935-20.023 21.828-26.648 35.674-6.618 13.852-9.931 29.508-9.931 46.973v69.55c0 14.45 1.352 28.301 4.06 41.549 2.71 13.245 7.68 27.096 14.907 41.546 7.223 14.455 17.16 29.96 29.805 46.521 12.646 16.56 28.603 34.774 47.873 54.647a3660.524 3660.524 0 0 0 48.325 51.03 14900.02 14900.02 0 0 1 44.712 46.52 47629.687 47629.687 0 0 1 45.164 46.968h331.49zM511.55 158.19c15.656 0 30.407 3.01 44.259 9.031 13.847 6.021 25.89 14.153 36.127 24.386 10.238 10.24 18.365 22.432 24.391 36.585 6.021 14.148 9.031 29.056 9.031 44.712 0 15.655-3.01 30.407-9.03 44.26-6.027 13.845-14.154 25.893-24.392 36.126-10.238 10.238-22.28 18.369-36.127 24.39-13.85 6.022-28.603 9.033-44.259 9.033-15.657 0-30.563-3.011-44.712-9.032-14.153-6.021-26.346-14.153-36.584-24.391-10.238-10.233-18.365-22.28-24.386-36.127-6.021-13.851-9.033-28.604-9.033-44.26 0-15.655 3.012-30.562 9.033-44.711 6.02-14.153 14.149-26.346 24.386-36.585 10.238-10.233 22.431-18.365 36.584-24.386 14.15-6.021 29.055-9.031 44.712-9.031z m452.527 451.626v-56.908c0-15.656-5.569-28.9-16.712-39.741-11.137-10.84-24.537-16.26-40.193-16.26H794.264c-15.656 0-28.901 5.42-39.741 16.26-10.84 10.84-16.26 24.085-16.26 39.74v56.91H285.737v-56.91c0-15.655-5.418-28.9-16.259-39.74-10.84-10.84-24.085-16.26-39.745-16.26H116.827c-15.656 0-29.055 5.42-40.193 16.26-11.142 10.84-16.711 24.085-16.711 39.74V611.62c0 7.228 1.805 13.399 5.419 18.517 3.613 5.122 8.132 9.786 13.55 14.001 5.418 4.213 11.439 7.978 18.064 11.29 6.624 3.31 13.249 7.076 19.872 11.292 6.625 3.609 21.527 11.59 44.712 23.934 23.185 12.344 52.386 25.141 87.614 38.388 35.227 13.25 75.274 24.99 120.13 35.227 44.864 10.239 92.585 15.354 143.167 15.354 57.81 0 109.446-5.115 154.907-15.354 45.465-10.238 84.908-21.979 118.328-35.227 33.422-13.248 60.216-26.045 80.39-38.388 20.17-12.345 33.869-20.325 41.097-23.934 7.228-4.216 14.149-7.981 20.774-11.292 6.624-3.313 12.645-7.077 18.068-11.29 5.419-4.215 9.786-8.88 13.093-14.001 3.312-5.117 4.971-11.289 4.971-18.517v-1.805h-0.002z m0 0"  horiz-adv-x="1024" />

    
    <glyph glyph-name="china" unicode="&#58971;" d="M0 896h1575.388v-1024H0zM341.327 497.991L256.2 559.463l-85.68-61.294 32.455 99.64-85.068 62.865 104.915-0.163L256.2 760.932l31.388-100.42 106.692-0.124-85.561-63.043zM517.2 784.226l-26.366-6.696-2.059-27.215-14.405 23.012-26.632-6.454 17.471 20.82-14.41 23.323 25.176-10.454 17.753 21.18-1.694-27.481z m115.586-95.808l-27.146 1.773-10.365-25.24-6.593 26.331-27.319 2.094 23.048 14.4-6.494 26.632 20.711-17.718 23.432 14.657-10.103-25.61z m-1.22-132.09l-18.36-20.07 13.21-23.877-24.672 11.329-18.716-20.01 3.175 26.993-24.84 11.59 26.776 5.077 3.225 27.452 13.664-23.902zM497.19 488.38l-3.53-26.973 24.518-11.985-26.707-4.864-3.856-27.132-12.88 23.937-26.997-4.756 19.027 19.516-13.106 24.336 24.899-11.743z"  horiz-adv-x="1575" />

    
    <glyph glyph-name="america" unicode="&#58972;" d="M0.385 894.984H1574.21V-128H0.385zM0.385 896H1574.21v-78.935H0.385z m0-155.403H1574.21v-78.934H0.385z m0-165.27H1574.21v-78.934H0.385z m0-152.368H1574.21v-78.934H0.385z m0-157.87H1574.21v-78.934H0.385z m0-162.802H1574.21v-78.935H0.385z m0-151.352H1574.21V-128H0.385zM0 896h632.297v-553.164H0zM122.63 760.745l-16.645 12.023-16.759-11.988 6.35 19.487L78.94 792.56l20.518-0.035 6.527 19.64 6.137-19.64 20.869-0.024-16.735-12.329z m105.477 0l-16.646 12.023-16.758-11.988 6.349 19.487-16.636 12.294 20.519-0.035 6.526 19.64 6.138-19.64 20.863-0.024-16.73-12.329z m105.476 0l-16.645 12.023-16.759-11.988 6.35 19.487-16.636 12.294 20.518-0.035 6.527 19.64 6.137-19.64 20.864-0.024-16.73-12.329z m105.477 0l-16.646 12.023-16.758-11.988 6.349 19.487-16.64 12.294 20.518-0.035 6.531 19.64 6.138-19.64 20.863-0.024-16.73-12.329z m105.476 0l-16.65 12.023-16.754-11.988 6.35 19.487-16.641 12.294 20.518-0.035 6.527 19.64 6.142-19.64 20.864-0.024-16.735-12.329zM69.127 815.146L52.482 827.17 35.723 815.18l6.35 19.487-16.636 12.294 20.518-0.035 6.527 19.64 6.137-19.64 20.864-0.02-16.73-12.333z m105.477 0L157.959 827.17l-16.76-11.988 6.35 19.487-16.635 12.294 20.518-0.035 6.527 19.64 6.137-19.64 20.863-0.02-16.73-12.333z m105.476 0L263.43 827.17 246.676 815.18l6.35 19.487-16.64 12.294 20.517-0.035 6.527 19.64 6.142-19.64 20.864-0.02-16.73-12.333z m105.477 0l-16.65 12.023-16.754-11.988 6.349 19.487-16.64 12.294 20.518-0.035 6.527 19.64 6.142-19.64 20.863-0.02-16.734-12.333z m105.476 0l-16.65 12.023L457.63 815.18l6.35 19.487-16.64 12.294 20.517-0.035 6.527 19.64 6.142-19.64 20.864-0.02-16.735-12.333z m105.477 0L579.86 827.17 563.106 815.18l6.344 19.487-16.635 12.294 20.518-0.035 6.527 19.64 6.142-19.64 20.863-0.02-16.734-12.333zM122.63 651.944l-16.645 12.023-16.759-11.989 6.35 19.487L78.94 683.76l20.518-0.034 6.527 19.64 6.137-19.64 20.869-0.025-16.735-12.328z m105.477 0l-16.646 12.023-16.758-11.989 6.349 19.487-16.636 12.294 20.519-0.034 6.526 19.64 6.138-19.64 20.863-0.025-16.73-12.328z m105.476 0l-16.645 12.023-16.759-11.989 6.35 19.487-16.636 12.294 20.518-0.034 6.527 19.64 6.137-19.64 20.864-0.025-16.73-12.328z m105.477 0l-16.646 12.023-16.758-11.989 6.349 19.487-16.64 12.294 20.518-0.034 6.531 19.64 6.138-19.64 20.863-0.025-16.73-12.328z m105.476 0l-16.65 12.023-16.754-11.989 6.35 19.487-16.641 12.294 20.518-0.034 6.527 19.64 6.142-19.64 20.864-0.025-16.735-12.328zM69.127 706.345l-16.645 12.022-16.759-11.988 6.35 19.487-16.636 12.294 20.518-0.034 6.527 19.64 6.137-19.64 20.864-0.025-16.73-12.329z m105.477 0l-16.645 12.022-16.76-11.988 6.35 19.487-16.635 12.294 20.518-0.034 6.527 19.64 6.137-19.64 20.863-0.025-16.73-12.329z m105.476 0l-16.65 12.022-16.754-11.988 6.35 19.487-16.64 12.294 20.517-0.034 6.527 19.64 6.142-19.64 20.864-0.025-16.73-12.329z m105.477 0l-16.65 12.022-16.754-11.988 6.349 19.487-16.64 12.294 20.518-0.034 6.527 19.64 6.142-19.64 20.863-0.025-16.734-12.329z m105.476 0l-16.65 12.022-16.754-11.988 6.35 19.487-16.64 12.294 20.517-0.034 6.527 19.64 6.142-19.64 20.864-0.025-16.735-12.329z m105.477 0l-16.65 12.022-16.754-11.988 6.344 19.487-16.635 12.294 20.518-0.034 6.527 19.64 6.142-19.64 20.863-0.025-16.734-12.329zM122.63 543.142l-16.645 12.018-16.759-11.983 6.35 19.482-16.636 12.299 20.518-0.035 6.527 19.64 6.137-19.64 20.869-0.024-16.735-12.329z m105.477 0L211.46 555.16l-16.758-11.983 6.349 19.482-16.636 12.299 20.519-0.035 6.526 19.64 6.138-19.64 20.863-0.024-16.73-12.329z m105.476 0l-16.645 12.018-16.759-11.983 6.35 19.482-16.636 12.299 20.518-0.035 6.527 19.64 6.137-19.64 20.864-0.024-16.73-12.329z m105.477 0l-16.646 12.018-16.758-11.983 6.349 19.482-16.64 12.299 20.518-0.035 6.531 19.64 6.138-19.64 20.863-0.024-16.73-12.329z m105.476 0l-16.65 12.018-16.754-11.983 6.35 19.482-16.641 12.299 20.518-0.035 6.527 19.64 6.142-19.64 20.864-0.024-16.735-12.329zM69.127 597.543l-16.645 12.023-16.759-11.988 6.35 19.487-16.636 12.294 20.518-0.035 6.527 19.64 6.137-19.64 20.864-0.025-16.73-12.328z m105.477 0l-16.645 12.023-16.76-11.988 6.35 19.487-16.635 12.294 20.518-0.035 6.527 19.64 6.137-19.64 20.863-0.025-16.73-12.328z m105.476 0l-16.65 12.023-16.754-11.988 6.35 19.487-16.64 12.294 20.517-0.035 6.527 19.64 6.142-19.64 20.864-0.025-16.73-12.328z m105.477 0l-16.65 12.023-16.754-11.988 6.349 19.487-16.64 12.294 20.518-0.035 6.527 19.64 6.142-19.64 20.863-0.025-16.734-12.328z m105.476 0l-16.65 12.023-16.754-11.988 6.35 19.487-16.64 12.294 20.517-0.035 6.527 19.64 6.142-19.64 20.864-0.025-16.735-12.328z m105.477 0l-16.65 12.023-16.754-11.988 6.344 19.487-16.635 12.294 20.518-0.035 6.527 19.64 6.142-19.64 20.863-0.025-16.734-12.328zM122.63 434.336l-16.645 12.022-16.759-11.983 6.35 19.482-16.636 12.294 20.518-0.03 6.527 19.64 6.137-19.64 20.869-0.024-16.735-12.329z m105.477 0l-16.646 12.022-16.758-11.983 6.349 19.482-16.636 12.294 20.519-0.03 6.526 19.64 6.138-19.64 20.863-0.024-16.73-12.329z m105.476 0l-16.645 12.022-16.759-11.983 6.35 19.482-16.636 12.294 20.518-0.03 6.527 19.64 6.137-19.64 20.864-0.024-16.73-12.329z m105.477 0l-16.646 12.022-16.758-11.983 6.349 19.482-16.64 12.294 20.518-0.03 6.531 19.64 6.138-19.64 20.863-0.024-16.73-12.329z m105.476 0l-16.65 12.022-16.754-11.983 6.35 19.482-16.641 12.294 20.518-0.03 6.527 19.64 6.142-19.64 20.864-0.024-16.735-12.329zM69.127 488.741L52.482 500.76l-16.759-11.983 6.35 19.482-16.636 12.294 20.518-0.03 6.527 19.64 6.137-19.64 20.864-0.024-16.73-12.329z m105.477 0l-16.645 12.018-16.76-11.983 6.35 19.482-16.635 12.294 20.518-0.03 6.527 19.64 6.137-19.64 20.863-0.024-16.73-12.329z m105.476 0l-16.65 12.018-16.754-11.983 6.35 19.482-16.64 12.294 20.517-0.03 6.527 19.64 6.142-19.64 20.864-0.024-16.73-12.329z m105.477 0l-16.65 12.018-16.754-11.983 6.349 19.482-16.64 12.294 20.518-0.03 6.527 19.64 6.142-19.64 20.863-0.024-16.734-12.329z m105.476 0l-16.65 12.018-16.754-11.983 6.35 19.482-16.64 12.294 20.517-0.03 6.527 19.64 6.142-19.64 20.864-0.024-16.735-12.329z m105.477 0l-16.65 12.018-16.754-11.983 6.344 19.482-16.635 12.294 20.518-0.03 6.527 19.64 6.142-19.64 20.863-0.024-16.734-12.329zM69.127 379.935l-16.645 12.023-16.759-11.989 6.35 19.487-16.636 12.294 20.518-0.03 6.527 19.64 6.137-19.64 20.864-0.024-16.73-12.328z m105.477 0l-16.645 12.023-16.76-11.989 6.35 19.487-16.635 12.294 20.518-0.03 6.527 19.64 6.137-19.64 20.863-0.024-16.73-12.328z m105.476 0l-16.65 12.023-16.754-11.989 6.35 19.487-16.64 12.294 20.517-0.03 6.527 19.64 6.142-19.64 20.864-0.024-16.73-12.328z m105.477 0l-16.65 12.023-16.754-11.989 6.349 19.487-16.64 12.294 20.518-0.03 6.527 19.64 6.142-19.64 20.863-0.024-16.734-12.328z m105.476 0l-16.65 12.023-16.754-11.989 6.35 19.487-16.64 12.294 20.517-0.03 6.527 19.64 6.142-19.64 20.864-0.024-16.735-12.328z m105.477 0l-16.65 12.023-16.754-11.989 6.344 19.487-16.635 12.294 20.518-0.03 6.527 19.64 6.142-19.64 20.863-0.024-16.734-12.328z"  horiz-adv-x="1575" />

    
    <glyph glyph-name="zuo" unicode="&#58973;" d="M362.304719 94.50427V671.729618L0.976539 383.165843l361.32818-288.661573zM1287.651236 821.112809c0-41.295101-33.474157-74.769258-74.769258-74.769258H729.758202c-41.293663 0-74.76782 33.474157-74.76782 74.769258 0 41.293663 33.474157 74.769258 74.76782 74.769258H1212.879101c41.296539 0 74.772135-33.477034 74.772135-74.769258z m0-874.225618c0-41.293663-33.474157-74.769258-74.769258-74.769258H729.758202c-41.293663 0-74.76782 33.475596-74.76782 74.769258 0 41.295101 33.474157 74.770697 74.76782 74.770697H1212.879101c41.296539 0 74.772135-33.475596 74.772135-74.772135z m0 437.112809c0-41.293663-33.474157-74.772135-74.769258-74.772135H729.758202c-41.293663 0-74.76782 33.478472-74.76782 74.772135 0 41.295101 33.474157 74.769258 74.76782 74.769258H1212.879101c41.296539 0 74.772135-33.475596 74.772135-74.769258z"  horiz-adv-x="1288" />

    
    <glyph glyph-name="Shape" unicode="&#58974;" d="M926.09582 94.284225l361.473438 288.629932L926.09582 671.640449v-577.356224zM634.247191 821.213483c0-41.305169-33.487101-74.786517-74.799461-74.786517H76.129798C34.818876 746.426966 1.331775 779.908315 1.331775 821.213483c0 41.30373 33.487101 74.786517 74.798023 74.786517H559.446292C600.76009 895.998562 634.247191 862.515775 634.247191 821.213483z m0-874.426966c0-41.30373-33.487101-74.786517-74.799461-74.786517H76.129798C34.818876-128 1.331775-94.517213 1.331775-53.213483c0 41.305169 33.487101 74.787955 74.798023 74.787955H559.446292c41.313798 0 74.800899-33.482787 74.800899-74.787955z m0 437.213483c0-41.30373-33.487101-74.787955-74.799461-74.787955H76.129798C34.818876 309.212045 1.331775 342.69627 1.331775 384c0 41.305169 33.487101 74.786517 74.798023 74.786517H559.446292c41.313798 0 74.800899-33.482787 74.800899-74.786517z"  horiz-adv-x="1288" />

    
    <glyph glyph-name="usergroup_manage" unicode="&#58992;" d="M394.971429 559.542857a243.809524 243.809524 0 1 1 487.619047 0 243.809524 243.809524 0 1 1-487.619047 0ZM853.333333 310.857143c-58.514286-48.761905-131.657143-82.895238-214.552381-82.895238s-160.914286 34.133333-219.428571 87.771428c-73.142857-92.647619-117.028571-199.92381-117.028571-316.952381 0-24.380952 0-53.638095 4.87619-78.019047 102.4-24.380952 214.552381-39.009524 331.580952-39.009524 112.152381 0 219.428571 14.628571 321.828572 39.009524 4.87619 24.380952 4.87619 53.638095 4.87619 78.019047 0 117.028571-39.009524 224.304762-112.152381 312.076191zM346.209524 403.504762c-24.380952 48.761905-39.009524 102.4-39.009524 160.914286 0 131.657143 78.019048 248.685714 190.171429 297.447619-34.133333 19.504762-73.142857 29.257143-112.152381 29.257143-131.657143 0-243.809524-107.27619-243.809524-243.809524 0-126.780952 87.771429-229.180952 204.8-243.809524zM170.666667 398.628571c-73.142857-87.771429-112.152381-199.92381-112.152381-312.07619 0-24.380952 0-53.638095 4.87619-78.019048 48.761905-14.628571 102.4-19.504762 156.038095-29.257143 0 121.904762 39.009524 238.933333 107.276191 341.333334-63.390476 9.752381-117.028571 39.009524-156.038095 78.019047z"  horiz-adv-x="1024" />

    
    <glyph glyph-name="user_manage" unicode="&#58993;" d="M272.747664 608.897196a239.252336 239.252336 0 1 1 478.504672 0 239.252336 239.252336 0 1 1-478.504672 0ZM722.542056 364.859813c-57.420561-47.850467-129.196262-81.345794-210.542056-81.345794s-157.906542 33.495327-215.327103 86.130841c-71.775701-90.915888-114.841121-196.186916-114.841121-311.028038 0-23.925234 0-52.635514 4.785046-76.560747 100.485981-23.925234 210.542056-38.280374 325.383178-38.280374 110.056075 0 215.327103 14.35514 315.813084 38.280374 4.785047 23.925234 4.785047 52.635514 4.785047 76.560747 0 114.841121-38.280374 220.11215-110.056075 306.242991z"  horiz-adv-x="1024" />

    
    <glyph glyph-name="role_manage" unicode="&#58994;" d="M431.728814 679.050847m-216.949153 0a216.949153 216.949153 0 1 1 433.898305 0 216.949153 216.949153 0 1 1-433.898305 0ZM722.440678 331.932203l91.118644 329.762712-260.338983-377.491525 173.559322-73.762712-173.559322-338.440678 338.440678 377.491525zM683.389831 197.423729l-177.898306 73.762712 121.491526 177.898305c0 4.338983-4.338983 4.338983-4.338983 8.677966-52.067797-43.389831-117.152542-73.762712-190.915254-73.762712s-143.186441 30.372881-195.254238 78.101695C171.389831 379.661017 132.338983 284.20339 132.338983 180.067797c0-21.694915 0-47.728814 4.338983-69.423729 91.118644-21.694915 190.915254-34.711864 295.050848-34.711865 69.423729 0 134.508475 4.338983 195.254237 17.355933l56.40678 104.135593z"  horiz-adv-x="1024" />

    
    <glyph glyph-name="personal_file" unicode="&#58995;" d="M361.724675 635.345455m-260.654545 0a260.654545 260.654545 0 1 1 521.309091 0 260.654545 260.654545 0 1 1-521.309091 0ZM462.794805 87.438961l156.924676 250.015584c-7.979221 13.298701-18.618182 23.937662-29.257143 37.236364-61.174026-55.854545-143.625974-85.111688-228.737663-87.771428-87.771429 0-172.883117 31.916883-236.716883 93.090909-79.792208-95.750649-125.007792-212.779221-125.007792-337.787013 0-26.597403 2.65974-53.194805 5.319481-79.792208 117.028571-26.597403 236.716883-42.555844 356.405194-42.555844 39.896104 0 79.792208 2.65974 119.688312 5.31948l-23.937662 135.646753c-2.65974 10.638961 0 18.618182 5.31948 26.597403zM1029.319481 435.864935l-194.161039 122.348052c-2.65974 2.65974-7.979221 5.319481-13.298702 5.319481h-5.31948c-5.319481 0-13.298701-5.319481-15.958442-10.638962L500.031169 76.8c-2.65974-5.319481-5.319481-10.638961-2.65974-18.618182l29.257142-164.903896c0-7.979221 5.319481-13.298701 10.638961-15.958441 5.319481-5.319481 13.298701-5.319481 18.618182-2.659741l162.244156 45.215585c5.319481 2.65974 10.638961 5.319481 13.298701 10.638961l300.55065 476.093506c10.638961 5.319481 7.979221 21.277922-2.65974 29.257143z"  horiz-adv-x="1039" />

    
    <glyph glyph-name="overview" unicode="&#58996;" d="M665.043478 640v33.391304c0 11.130435-8.347826 19.478261-19.478261 19.478261h-475.826087c-11.130435 0-19.478261-8.347826-19.47826-19.478261v-33.391304c0-11.130435 8.347826-19.478261 19.47826-19.478261h475.826087c11.130435 0 19.478261 8.347826 19.478261 19.478261zM553.73913 425.73913c11.130435 0 19.478261 8.347826 19.478261 19.478261v33.391305c0 11.130435-8.347826 19.478261-19.478261 19.478261h-384c-11.130435 0-19.478261-8.347826-19.47826-19.478261v-33.391305c0-11.130435 8.347826-19.478261 19.47826-19.478261h384zM166.956522 306.086957c-11.130435 0-19.478261-8.347826-19.478261-19.478261v-33.391305c0-11.130435 8.347826-19.478261 19.478261-19.478261h300.521739c11.130435 0 19.478261 8.347826 19.478261 19.478261v33.391305c0 11.130435-8.347826 19.478261-19.478261 19.478261h-300.521739zM909.913043 395.130435c-2.782609 2.782609-5.565217 5.565217-11.130434 8.347826-33.391304-5.565217-69.565217-11.130435-102.956522-11.130435h-5.565217c-36.173913 0-69.565217 5.565217-105.739131 11.130435-5.565217-2.782609-8.347826-8.347826-13.913043-13.913044-72.347826-72.347826-155.826087-217.043478-155.826087-322.782608h-384c-41.73913 0-72.347826 33.391304-72.347826 72.347826V765.217391c0 41.73913 33.391304 72.347826 72.347826 72.347826H676.173913c41.73913 0 72.347826-33.391304 72.347826-72.347826v-141.913043c-25.043478 0-44.521739-5.565217-47.304348-11.130435-2.782609-11.130435 19.478261-22.26087 16.695652-30.608696-19.478261-13.913043-150.26087 30.608696-141.913043-5.565217 11.130435-22.26087 30.608696-50.086957 86.26087-94.608696 2.782609-2.782609 11.130435-8.347826 19.47826-16.695652 36.173913-8.347826 75.130435-13.913043 114.086957-13.913043s77.913043 2.782609 114.086956 11.130434c47.304348 47.304348 77.913043 108.521739 77.913044 119.652174 0 25.043478-128-25.043478-133.565217-8.347826-2.782609 8.347826 25.043478 16.695652 22.260869 30.608696-2.782609 11.130435-33.391304 16.695652-69.565217 19.478261V765.217391c0 72.347826-58.434783 130.782609-130.782609 130.782609h-545.391304c-72.347826 0-130.782609-58.434783-130.782609-130.782609v-620.521739c0-72.347826 58.434783-130.782609 130.782609-130.782609h392.347826c27.826087-108.521739 139.130435-141.913043 272.695652-141.913043 153.043478 0 278.26087 44.521739 278.26087 200.347826-2.782609 102.956522-102.956522 269.913043-164.173914 322.782609z"  horiz-adv-x="1074" />

    
    <glyph glyph-name="money" unicode="&#58997;" d="M433.75008 682.55409c5.403694-2.701847 13.509235-10.807388 24.316623-21.614776 48.633245-10.807388 99.968338-18.912929 148.601583-18.912929 51.335092 0 102.670185 5.403694 151.30343 16.211082 62.14248 62.14248 102.670185 140.496042 102.670185 156.707124 0 32.422164-170.216359-32.422164-175.620053-13.509235-2.701847 8.105541 32.422164 21.614776 29.720317 40.527705-5.403694 32.422164-224.253298 40.527704-229.656992 13.509235-2.701847-16.211082 27.01847-29.720317 21.614775-40.527705-27.01847-18.912929-197.234828 37.825858-189.129287-5.403694 16.211082-29.720317 43.229551-64.844327 116.179419-126.986807zM66.298893 366.437995a218.849604 70.248021 0 1 1 437.699208 0 218.849604 70.248021 0 1 1-437.699208 0ZM285.148497 269.171504c-126.986807 0-229.656992 32.422164-229.656992 72.949868l2.701847-64.844327c13.509235-35.124011 110.775726-64.844327 226.955145-64.844327 118.881266 0 216.147757 27.01847 226.955145 64.844327h2.701847V342.121372c0-40.527704-102.670185-72.949868-229.656992-72.949868zM285.148497 182.712401c-126.986807 0-229.656992 32.422164-229.656992 72.949868l2.701847-64.844327c13.509235-35.124011 110.775726-64.844327 226.955145-64.844327 118.881266 0 216.147757 27.01847 226.955145 64.844327h2.701847v64.844327c0-40.527704-102.670185-72.949868-229.656992-72.949868zM285.148497 98.955145c-126.986807 0-229.656992 32.422164-229.656992 72.949868l2.701847-64.844327c13.509235-35.124011 110.775726-64.844327 226.955145-64.844327 118.881266 0 216.147757 27.01847 226.955145 64.844327h2.701847v64.844327c0-40.527704-102.670185-72.949868-229.656992-72.949868zM285.148497 15.197889c-126.986807 0-229.656992 32.422164-229.656992 72.949868l2.701847-64.844327c13.509235-35.124011 110.775726-64.844327 226.955145-64.844327 118.881266 0 216.147757 27.01847 226.955145 64.844327h2.701847v64.844327c0-37.825858-102.670185-72.949868-229.656992-72.949868zM285.148497-71.261214c-126.986807 0-229.656992 32.422164-229.656992 72.949868l2.701847-64.844327c13.509235-35.124011 110.775726-64.844327 226.955145-64.844327 118.881266 0 216.147757 27.01847 226.955145 64.844327h2.701847v64.844327c0-40.527704-102.670185-72.949868-229.656992-72.949868zM766.077257 574.480211c-5.403694 2.701847-8.105541 8.105541-13.509235 10.807388-45.931398-8.105541-89.16095-13.509235-135.092348-13.509235h-8.105541c-45.931398 0-91.862797 5.403694-137.794195 16.211082-5.403694-5.403694-13.509235-10.807388-18.912929-16.211082-29.720317-29.720317-59.440633-67.546174-89.16095-113.477572 59.440633-5.403694 110.775726-21.614776 137.794195-40.527705 18.912929-13.509235 32.422164-29.720317 37.825858-51.335092 2.701847-10.807388 5.403694-21.614776 5.403694-24.316623 2.701847-29.720317 2.701847-208.042216 2.701847-448.506596 0 0 35.124011-10.807388 67.546174-10.807388 202.638522 0 367.451187 59.440633 367.451187 262.079156-5.403694 140.496042-137.794195 359.345646-216.147757 429.593667z"  horiz-adv-x="1024" />

    
    <glyph glyph-name="config1" unicode="&#58998;" d="M861.210256 439.138462l128.656411 78.76923c-13.128205 42.010256-28.882051 81.394872-49.88718 118.153846-21.005128 36.758974-47.261538 70.892308-78.769231 99.774359l-128.65641-68.266666c-26.25641 21.005128-57.764103 39.384615-89.271795 49.887179l-5.251282 147.035898c-81.394872 23.630769-170.666667 23.630769-252.061538 0l-5.251282-147.035898c-15.753846-5.251282-31.507692-13.128205-44.635898-23.630769-13.128205-7.876923-26.25641-18.379487-39.384615-28.882051l-128.65641 68.266666c-63.015385-60.389744-105.025641-136.533333-128.656411-217.928205l123.405129-78.76923c-5.251282-34.133333-5.251282-68.266667 0-99.774359l-123.405129-78.769231c13.128205-42.010256 28.882051-81.394872 49.88718-118.153846 21.005128-36.758974 47.261538-70.892308 78.769231-99.774359l128.65641 68.266666c26.25641-21.005128 57.764103-39.384615 89.271795-49.887179l5.251282-147.035898c81.394872-23.630769 170.666667-23.630769 252.061538 0l5.251282 147.035898c15.753846 5.251282 31.507692 10.502564 44.635898 23.630769 10.502564 10.502564 28.882051 15.753846 39.384615 28.882051l128.65641-68.266666c60.389744 60.389744 105.025641 136.533333 128.656411 217.928205l-123.405129 78.769231c2.625641 31.507692 0 65.641026-5.251282 99.774359z m-252.061538-220.553847c-44.635897-26.25641-97.148718-34.133333-147.035897-21.005128-49.887179 13.128205-91.897436 47.261538-115.528206 91.897436-26.25641 44.635897-34.133333 97.148718-21.005128 147.035898s47.261538 91.897436 91.897436 115.528205c44.635897 26.25641 97.148718 34.133333 147.035898 21.005128 49.887179-13.128205 91.897436-47.261538 115.528205-91.897436 55.138462-91.897436 21.005128-207.425641-70.892308-262.564103z"  horiz-adv-x="1024" />

    
    <glyph glyph-name="enlarge" unicode="&#58975;" d="M633.941333 504.874667h-146.133333V651.136a48.768 48.768 0 1 1-97.408 0v-146.261333H244.309333a48.725333 48.725333 0 0 1 0-97.493334H390.4v-146.261333a48.725333 48.725333 0 1 1 97.408 0v146.261333h146.133333a48.768 48.768 0 0 1 0 97.493334z m375.04-546.901334l-226.176 226.474667c135.808 172.202667 124.330667 422.741333-34.474666 581.674667-171.178667 171.349333-448.725333 171.349333-619.946667 0-171.178667-171.349333-171.178667-449.109333 0-620.458667 159.146667-159.274667 410.197333-170.496 582.272-33.706667l226.133333-226.346666a51.157333 51.157333 0 0 1 72.234667 72.362666z m-329.856 257.706667a340.650667 340.650667 0 0 0-482.133333 0 341.461333 341.461333 0 0 0 0 482.602667 340.650667 340.650667 0 0 0 482.133333 0 341.546667 341.546667 0 0 0 0-482.645334z"  horiz-adv-x="1024" />

    
    <glyph glyph-name="checkbox" unicode="&#58976;" d="M841.984 861.696H182.016A141.12 141.12 0 0 1 39.808 718.912v-662.784c0-80 62.592-142.784 142.208-142.784h659.968a141.12 141.12 0 0 1 142.208 142.784V718.912c0 74.24-62.592 142.784-142.208 142.784z m85.312-811.264c0-45.696-39.808-85.696-85.312-85.696H182.016c-45.44 0-85.312 40-85.312 85.76V718.848c0 45.696 39.808 85.696 85.312 85.696h659.968c45.44 0 85.312-40 85.312-85.76v-668.416zM779.392 616.064L409.6 244.672 238.912 416.064c-11.328 17.152-39.808 17.152-56.896 0a44.992 44.992 0 0 1 0-62.848l199.168-199.936c5.632-5.76 17.024-11.392 28.416-11.392s22.784 5.696 28.416 11.392l398.272 399.936a44.992 44.992 0 0 1 0 62.848c-17.088 17.152-39.872 17.152-56.96 0z"  horiz-adv-x="1024" />

    
    <glyph glyph-name="date" unicode="&#58977;" d="M916.781176 804.080941h-48.188235v14.456471C868.592941 862.208 834.861176 896 791.491765 896s-77.101176-33.852235-77.101177-77.402353v-14.516706H309.609412v14.456471C309.609412 862.208 271.058824 896 232.508235 896c-43.369412 0-77.101176-33.852235-77.101176-77.402353v-14.516706h-48.188235C63.849412 804.080941 30.117647 770.108235 30.117647 726.618353v-725.895529c0-43.550118 33.731765-77.462588 77.101177-77.462589h809.562352c43.369412 0 77.101176 33.912471 77.101177 77.462589V726.618353c0 43.550118-33.731765 77.462588-77.101177 77.462588zM752.941176 818.537412c0 29.093647 19.275294 48.429176 48.188236 48.429176 28.912941 0 48.188235-19.335529 48.188235-48.368941v-135.529412c0-29.033412-19.275294-48.368941-48.188235-48.368941-28.912941 0-48.188235 19.275294-48.188236 48.368941v135.529412z m-568.621176 0c0 29.093647 19.275294 48.429176 48.188235 48.429176 28.912941 0 48.188235-19.335529 48.188236-48.368941v-135.529412c0-29.033412-19.275294-48.368941-48.188236-48.368941-28.912941 0-48.188235 19.275294-48.188235 48.368941v135.529412z m732.461176-827.512471H107.218824c-4.818824 0-14.456471 4.818824-14.456471 14.516706V537.901176h838.475294v-532.359529c0-4.818824-4.818824-14.456471-14.456471-14.456471zM203.595294 431.405176h134.927059v-67.764705H203.595294V431.405176z m240.941177 0h375.868235v-67.764705H444.536471V431.405176z m-240.941177-145.167058h616.809412v-62.945883H203.595294v62.945883z m0-130.710589h375.868235v-77.402353H203.595294v77.462589z m481.882353 0h134.927059v-77.402353h-134.927059v77.462589z"  horiz-adv-x="1024" />

    
    <glyph glyph-name="delete1" unicode="&#58978;" d="M389.12 505.56928v-368.64a19.94752 19.94752 0 0 0-5.7344-14.7456 19.94752 19.94752 0 0 0-14.7456-5.7344h-40.96a19.94752 19.94752 0 0 0-14.7456 5.7344 19.94752 19.94752 0 0 0-5.7344 14.7456v368.64c0 5.98016 1.92512 10.89536 5.7344 14.7456a19.94752 19.94752 0 0 0 14.7456 5.7344h40.96c5.98016 0 10.89536-1.92512 14.7456-5.7344 3.80928-3.85024 5.7344-8.76544 5.7344-14.7456z m163.84 0v-368.64a19.94752 19.94752 0 0 0-5.7344-14.7456 19.94752 19.94752 0 0 0-14.7456-5.7344h-40.96a19.94752 19.94752 0 0 0-14.7456 5.7344 19.94752 19.94752 0 0 0-5.7344 14.7456v368.64c0 5.98016 1.92512 10.89536 5.7344 14.7456a19.94752 19.94752 0 0 0 14.7456 5.7344h40.96c5.98016 0 10.89536-1.92512 14.7456-5.7344 3.80928-3.85024 5.7344-8.76544 5.7344-14.7456z m163.84 0v-368.64a19.94752 19.94752 0 0 0-5.7344-14.7456 19.94752 19.94752 0 0 0-14.7456-5.7344h-40.96a19.94752 19.94752 0 0 0-14.7456 5.7344 19.94752 19.94752 0 0 0-5.7344 14.7456v368.64c0 5.98016 1.92512 10.89536 5.7344 14.7456a19.94752 19.94752 0 0 0 14.7456 5.7344h40.96c5.98016 0 10.89536-1.92512 14.7456-5.7344 3.80928-3.85024 5.7344-8.76544 5.7344-14.7456z m81.92-463.38048V648.92928H225.28v-606.74048c0-9.37984 1.47456-18.0224 4.5056-25.88672 2.94912-7.90528 6.06208-13.68064 9.25696-17.28512 3.19488-3.64544 5.44768-5.44768 6.71744-5.44768h532.48c1.26976 0 3.52256 1.80224 6.71744 5.44768 3.19488 3.60448 6.30784 9.37984 9.29792 17.28512 2.99008 7.86432 4.46464 16.50688 4.46464 25.88672zM368.64 730.84928h286.72l-30.72 74.87488a18.06336 18.06336 0 0 1-10.89536 7.04512H410.86976a18.06336 18.06336 0 0 1-10.8544-7.04512L368.64 730.84928z m593.92-20.48v-40.96a19.94752 19.94752 0 0 0-5.7344-14.7456 19.94752 19.94752 0 0 0-14.7456-5.7344H880.64v-606.74048c0-35.38944-10.0352-66.02752-30.06464-91.83232-20.0704-25.8048-44.15488-38.7072-72.33536-38.7072h-532.48c-28.18048 0-52.26496 12.4928-72.33536 37.43744-20.0704 24.9856-30.06464 55.13216-30.06464 90.5216V648.97024H81.92a19.94752 19.94752 0 0 0-14.7456 5.7344 19.94752 19.94752 0 0 0-5.7344 14.7456v40.96c0 5.98016 1.92512 10.89536 5.7344 14.7456a19.94752 19.94752 0 0 0 14.7456 5.7344h197.75488l44.81024 106.9056c6.38976 15.7696 17.89952 29.20448 34.57024 40.30464 16.62976 11.0592 33.46432 16.62976 50.54464 16.62976h204.8c17.08032 0 33.91488-5.5296 50.54464-16.62976 16.67072-11.10016 28.18048-24.576 34.57024-40.3456l44.81024-106.9056H942.08c5.98016 0 10.89536-1.88416 14.7456-5.7344 3.80928-3.80928 5.7344-8.72448 5.7344-14.7456z"  horiz-adv-x="1024" />

    
    <glyph glyph-name="explanatorytext" unicode="&#58979;" d="M512-128c-281.6 0-512 230.4-512 512s230.4 512 512 512 512-230.4 512-512-230.4-512-512-512z m112.64 788.48c-15.36 15.36-30.72 20.48-51.2 20.48s-40.96-5.12-51.2-20.48c-20.48-15.36-25.6-30.72-25.6-51.2s5.12-35.84 20.48-46.08c15.36-15.36 30.72-20.48 51.2-20.48s40.96 5.12 51.2 20.48c15.36 15.36 20.48 30.72 20.48 46.08 5.12 20.48 0 35.84-15.36 51.2z m-35.84-517.12c-15.36 0-25.6 5.12-35.84 10.24-5.12 5.12-10.24 15.36-10.24 30.72 0 5.12 0 15.36 5.12 25.6 0 10.24 5.12 20.48 5.12 30.72l30.72 107.52c5.12 10.24 5.12 20.48 5.12 30.72v25.6c0 20.48-10.24 40.96-25.6 56.32s-40.96 20.48-71.68 20.48c-15.36 0-35.84-5.12-56.32-10.24-10.24-5.12-25.6-15.36-51.2-20.48l-5.12-35.84c5.12 5.12 15.36 5.12 20.48 5.12 10.24 0 15.36 5.12 25.6 5.12 15.36 0 25.6-5.12 35.84-10.24 5.12-5.12 10.24-15.36 10.24-30.72 0-5.12 0-15.36-5.12-25.6 0-10.24-5.12-20.48-5.12-30.72l-30.72-107.52c-5.12-10.24-5.12-20.48-5.12-30.72v-25.6c0-20.48 10.24-40.96 25.6-56.32s40.96-20.48 71.68-20.48c20.48 0 35.84 5.12 51.2 10.24s35.84 10.24 61.44 20.48l10.24 35.84c-5.12 0-10.24-5.12-20.48-5.12-15.36-5.12-25.6-5.12-35.84-5.12z"  horiz-adv-x="1024" />

    
    <glyph glyph-name="file" unicode="&#58980;" d="M810.097778 737.28a40.277333 40.277333 0 0 1-40.789334-40.96v-706.56c0-20.48-15.303111-40.96-40.789333-40.96H264.590222a40.277333 40.277333 0 0 0-40.789333 40.96V778.24c0 20.48 15.303111 40.96 40.789333 40.96h265.102222c20.366222 0 40.789333-15.36 40.789334-40.96v-583.68c0-20.48-15.303111-40.96-40.789334-40.96h-50.972444a40.277333 40.277333 0 0 0-40.789333 40.96V696.32c0 20.48-15.36 40.96-40.789334 40.96a40.277333 40.277333 0 0 1-40.789333-40.96v-506.88c0-66.56 50.972444-117.76 117.248-117.76h50.972444c66.275556 0 117.248 51.2 117.248 117.76V778.24C641.820444 844.8 590.848 896 524.629333 896H264.533333C198.314667 896 147.342222 844.8 147.342222 778.24v-788.48C147.342222-76.8 198.314667-128 264.533333-128h469.105778c66.275556 0 117.191111 51.2 117.191111 117.76V696.32c0 20.48-15.246222 40.96-40.732444 40.96z"  horiz-adv-x="1024" />

    
    <glyph glyph-name="inputbox" unicode="&#58981;" d="M248.263111 673.450667h112.867556v-589.255111h-112.867556zM462.620444 186.254222h112.867556v-101.944889h-112.867556zM643.185778 186.254222h112.867555v-101.944889h-112.867555zM812.487111 186.254222h112.867556v-101.944889h-112.867556zM2098.858667 877.454222H157.923556C67.697778 877.454222 0 809.528889 0 718.848v-679.936c0-90.680889 67.697778-158.72 157.923556-158.72h1929.671111c90.225778 0 157.923556 68.039111 157.923555 158.72V718.848c11.377778 90.680889-56.433778 158.606222-146.773333 158.606222z m45.169777-838.542222c0-34.133333-22.641778-56.661333-56.433777-56.661333H157.923556c-22.528 0-45.056 22.641778-45.056 56.661333V718.848c0 34.019556 22.528 56.661333 56.433777 56.661333h1929.557334c22.528 0 45.169778-22.755556 45.169777-56.661333v-679.936z"  horiz-adv-x="2275" />

    
    <glyph glyph-name="multilineinputbox" unicode="&#58982;" d="M160.914286 719.725714h73.142857v-381.952h-73.142857zM299.885714 403.821714h73.142857v-66.121143h-73.142857zM416.914286 403.821714h73.142857v-66.121143h-73.142857zM526.628571 403.821714h73.142858v-66.121143h-73.142858zM1345.828571 51.2V220.16l-168.228571-168.96zM1360.457143 829.878857H102.4C43.885714 829.878857 0 778.459429 0 719.725714v-683.154285c0-58.733714 43.885714-102.838857 102.4-102.838858h1250.742857c58.514286 0 102.4 44.105143 102.4 102.838858V719.725714c7.314286 58.733714-36.571429 110.153143-95.085714 110.153143zM1389.714286 43.885714c0-21.942857-14.628571-36.717714-36.571429-36.717714H102.4c-21.942857 0-36.571429 14.701714-36.571429 36.717714V719.725714c0 22.016 14.628571 36.717714 36.571429 36.717715h1250.742857c21.942857 0 36.571429-14.701714 36.571429-36.717715v-675.84z"  horiz-adv-x="1462" />

    
    <glyph glyph-name="notebook" unicode="&#58983;" d="M164.352 896C141.056 896 117.7088 870.7584 117.7088 845.5168v-908.8c0-30.3104 23.3472-50.4832 46.7456-50.4832h46.7456V896H164.352zM902.912 810.1888l-46.7456-55.552L650.496 532.48 585.0624 603.136 851.5072 896H234.496v-1009.7664h621.568c23.3984 0 46.7968 25.2416 46.7968 50.4832V810.1888z m-261.7344-287.7952L524.288 466.8416l46.7456 126.208 70.144-70.656z"  horiz-adv-x="1024" />

    
    <glyph glyph-name="record" unicode="&#58984;" d="M834.2528 896H157.0304C129.6896 896 102.4 870.5536 102.4 845.056V-71.68c0-25.4976 27.2896-50.944 54.6304-50.944h671.744c27.3408 0 54.6304 25.4464 54.6304 50.944V845.056C888.832 870.5536 861.5424 896 834.2528 896zM195.2768 773.7856h207.5136c16.384 0 27.2896-10.24 27.2896-25.4976s-16.384-25.4464-32.768-25.4464H195.2256c-16.384 0-27.2896 15.2576-27.2896 25.4464 0 10.24 10.9056 25.4976 27.2896 25.4976zM582.9632 503.808H195.2256c-16.384 0-27.2896 10.24-27.2896 25.4976s10.9056 25.4464 27.2896 25.4464h387.7888c16.384 0 27.2896-10.1888 27.2896-25.4464 0-15.3088-10.9056-25.4976-27.2896-25.4976zM708.608 615.936H195.2256c-16.384 0-27.2896 10.1888-27.2896 25.4464 0 15.3088 10.9056 25.4976 27.2896 25.4976h518.8608c16.384 0 27.2896-10.24 27.2896-25.4976s-16.384-25.4464-32.768-25.4464z"  horiz-adv-x="1024" />

    
    <glyph glyph-name="radio" unicode="&#58985;" d="M512-125.952c-281.6 0-505.6 224.96-505.6 507.776C6.4 664.64 230.4 889.6 512 889.6s505.6-224.96 505.6-507.776c0-282.816-224-507.776-505.6-507.776zM512 548.928c-96 0-166.4-77.12-166.4-167.104 0-89.984 76.8-167.104 166.4-167.104 89.6 0 166.4 77.12 166.4 167.04 0 90.048-70.4 167.168-166.4 167.168z"  horiz-adv-x="1024" />

    
    <glyph glyph-name="upload" unicode="&#58986;" d="M1006.85913-84.902957H61.662609A61.44 61.44 0 0 0 0-23.685565v306.086956c0 33.836522 27.603478 61.261913 61.662609 61.261913a61.44 61.44 0 0 0 61.618087-61.261913v-244.869565H945.196522v244.869565a61.44 61.44 0 0 0 61.618087 61.261913A61.44 61.44 0 0 0 1068.521739 282.401391v-306.086956a61.44 61.44 0 0 0-61.662609-61.217392z m-287.610434 653.04487c-18.253913 0-34.54887 7.791304-45.857392 20.257391l-77.467826 85.481739v-371.044173A61.44 61.44 0 0 0 534.26087 241.619478a61.44 61.44 0 0 0-61.662609 61.217392V673.881043L395.174957 588.354783c-11.308522-12.466087-27.603478-20.257391-45.857392-20.257392A61.44 61.44 0 0 0 287.610435 629.270261c0 15.760696 6.010435 30.096696 15.849739 40.96L488.403478 874.317913c11.308522 12.421565 27.603478 20.257391 45.857392 20.257391 18.16487 0 34.54887-7.791304 45.857391-20.257391l184.898782-204.087652c9.794783-10.863304 15.849739-25.199304 15.84974-40.96a61.44 61.44 0 0 0-61.662609-61.128348z"  horiz-adv-x="1068" />

    
    <glyph glyph-name="move" unicode="&#58987;" d="M61.056 745.856h1404.16c30.464 0 53.376 33.92 53.376 76.288 0 42.496-22.912 67.84-53.376 67.84H61.056C30.464 890.112 7.68 856.32 7.68 822.272c0-42.368 22.784-76.288 53.376-76.288zM1465.216 482.816H61.056c-30.592 0-53.376-34.048-53.376-76.416 0-42.496 22.784-67.84 53.376-67.84h1404.16c30.464 0 53.376 33.92 53.376 67.84 0 42.368-22.912 76.416-53.376 76.416zM1465.216 66.944H61.056c-30.592 0-53.376-33.92-53.376-67.84 0-42.496 22.784-76.416 53.376-76.416h1404.16c30.464 0 53.376 33.92 53.376 76.416 0 33.92-22.912 67.84-53.376 67.84z"  horiz-adv-x="1536" />

    
    <glyph glyph-name="numberinputbox" unicode="&#58988;" d="M225.28 649.216h102.4v-534.7328h-102.4zM624.64 628.6336l-194.56-61.7472v-71.9872l112.64 30.9248V196.60799999999995h-102.4v-71.9872h286.72v71.9872h-102.4zM1054.72 392.192c20.48 30.72 20.48 61.6448 20.48 92.4672 0 41.1648-10.24 71.9872-40.96 102.8096-30.72 20.5824-61.44 41.1648-102.4 41.1648-51.2 0-92.16-10.24-133.12-41.1648v-102.8096l20.48 20.48c30.72 30.9248 71.68 41.1648 102.4 41.1648 20.48 0 40.96-10.24 61.44-20.48 10.24-10.24 20.48-30.9248 20.48-51.5072 0-20.48-10.24-41.0624-20.48-61.6448-10.24-20.48-40.96-51.4048-71.68-82.3296L778.24 196.71040000000005v-61.7472h307.2v71.9872h-204.8l92.16 92.5696c40.96 30.8224 61.44 61.7472 81.92 92.5696zM1351.68 381.8496c40.96 20.48 71.68 61.6448 71.68 113.0496 0 41.1648-10.24 61.7472-40.96 92.5696-30.72 20.5824-61.44 30.8224-102.4 30.8224s-81.92-10.24-112.64-30.72v-82.3296l20.48 10.24c30.72 20.5824 51.2 30.8224 81.92 30.8224 51.2 0 71.68-20.48 71.68-61.6448 0-30.8224-10.24-71.9872-102.4-71.9872h-51.2v-71.9872h51.2c81.92 0 112.64-20.48 112.64-82.2272 0-20.5824-10.24-41.1648-20.48-51.5072-20.48-10.24-40.96-20.48-71.68-20.48-40.96 0-71.68 10.24-102.4 30.72l-20.48 10.3424v-92.5696c30.72-20.48 61.44-30.72 112.64-30.72 51.2 0 92.16 10.24 122.88 40.96 30.72 30.9248 51.2 61.7472 51.2 113.2544 0 30.72-10.24 61.6448-30.72 82.2272 0 20.48-20.48 30.8224-40.96 41.1648zM1904.64 834.2528H143.36C61.44 834.2528 0 772.608 0 690.2784v-616.96C0-9.01120000000003 61.44-70.65599999999995 143.36-70.65599999999995h1751.04c81.92 0 143.36 61.6448 143.36 143.9744V690.1759999999999c10.24 82.3296-51.2 143.9744-133.12 143.9744z m40.96-760.9344c0-30.8224-20.48-51.4048-51.2-51.4048H143.36c-20.48 0-40.96 20.48-40.96 51.4048V690.1759999999999c0 30.9248 20.48 51.5072 51.2 51.5072h1751.04c20.48 0 40.96-20.5824 40.96-51.5072v-616.96z"  horiz-adv-x="2048" />

    
    <glyph glyph-name="down" unicode="&#58989;" d="M182.211765 239.134118l298.164706-330.932706c4.517647-4.999529 9.035294-9.999059 13.552941-9.999059 9.035294-5.059765 22.588235-5.059765 31.623529 0 4.517647 0 9.035294 4.999529 13.552941 9.999059l298.164706 330.932706c18.070588 20.058353 18.070588 50.176 0 70.234353-9.035294 9.999059-18.070588 15.058824-31.623529 15.058823a46.501647 46.501647 0 0 1-31.62353-15.058823l-216.847058-250.75953V845.884235C557.176471 870.942118 539.105882 896 512 896s-45.176471-25.057882-45.176471-50.115765v-787.275294l-221.364705 245.76c-9.035294 9.999059-18.070588 15.058824-31.62353 15.058824-13.552941 0-22.588235-5.059765-31.623529-15.058824-18.070588-15.058824-18.070588-45.176471 0-65.234823z"  horiz-adv-x="1024" />

    
    <glyph glyph-name="up" unicode="&#58990;" d="M843.294118 550.008471L545.129412 880.941176C540.611765 886.000941 536.094118 891.000471 531.576471 891.000471a45.296941 45.296941 0 0 1-36.141177 0c-4.517647 0-9.035294-4.999529-13.552941-10.059295L183.717647 550.008471c-18.070588-20.058353-18.070588-50.115765 0-70.174118 9.035294-10.059294 18.070588-15.058824 31.623529-15.058824 13.552941 0 22.588235 4.999529 31.62353 15.058824l221.364706 250.699294v-787.275294c0-24.997647 18.070588-50.115765 45.17647-50.115765s45.176471 20.058353 45.176471 50.176V730.533647l221.364706-245.699765c9.035294-9.999059 18.070588-15.058824 31.623529-15.058823 9.035294 0 22.588235 5.059765 31.62353 15.058823 13.552941 15.058824 13.552941 45.176471 0 65.174589z"  horiz-adv-x="1024" />

    
    <glyph glyph-name="move1" unicode="&#58991;" d="M1582.994286 878.902857H119.131429C51.072 878.902857 0 819.072 0 750.701714v-743.588571c0-68.388571 51.072-119.661714 119.149714-119.661714h1463.826286c68.096 0 119.149714 51.291429 119.149714 119.661714V750.701714c0 68.388571-51.053714 128.201143-119.149714 128.201143zM119.131429-27.062857c-25.526857 0-42.550857 17.097143-42.550858 42.733714V750.701714c0 25.636571 17.005714 42.733714 42.550858 42.733715h434.048v-188.032c-119.149714-34.194286-221.275429-111.104-272.347429-222.226286-8.502857-25.636571 0-42.733714 17.005714-59.830857h17.042286c17.005714 0 34.029714 8.557714 42.550857 25.636571 34.048 85.485714 110.628571 145.316571 195.748572 170.953143v-538.459429H119.149714v-8.557714z m1497.874285 42.733714c0-25.636571-17.024-42.733714-42.550857-42.733714H638.299429V528.475429c59.574857 0 119.149714-17.097143 170.203428-51.273143l-34.029714-8.557715c-25.545143 0-42.550857-25.636571-42.550857-51.273142 0-17.097143 17.005714-34.194286 42.550857-34.194286h8.502857l136.173714 17.097143c25.526857 0 42.550857 25.636571 34.048 51.273143l-17.024 136.777142c0 25.618286-25.526857 42.715429-51.072 34.176-25.526857 0-42.550857-25.636571-34.029714-51.291428l8.502857-42.733714c-59.574857 59.830857-136.173714 85.467429-221.275428 85.467428V793.435429h944.676571c25.526857 0 42.550857-17.097143 42.550857-42.733715v-735.049143h-8.502857z"  horiz-adv-x="1718" />

    
    <glyph glyph-name="CombinedShapeCopy" unicode="&#58999;" d="M435.2 460.8H0v-153.6h435.2v-435.2h153.6V307.2h435.2v153.6H588.8V896h-153.6v-435.2z"  horiz-adv-x="1024" />

    
    <glyph glyph-name="tuceng_copy" unicode="&#59000;" d="M512 896C230.4 896 0 665.6 0 384s230.4-512 512-512 512 230.4 512 512S793.6 896 512 896z m266.24-552.96h-225.28v-225.28c0-20.48-15.36-40.96-40.96-40.96s-40.96 15.36-40.96 40.96v225.28H245.76c-20.48 0-40.96 15.36-40.96 40.96s15.36 40.96 40.96 40.96h225.28V650.24c0 20.48 15.36 40.96 40.96 40.96s40.96-15.36 40.96-40.96v-225.28h225.28c20.48 0 40.96-15.36 40.96-40.96s-20.48-40.96-40.96-40.96z"  horiz-adv-x="1024" />

    
    <glyph glyph-name="CloudIconCopy" unicode="&#59001;" d="M757.76-128h286.72v0.14336c181.88288 5.4272 327.68 154.58304 327.68 337.77664C1372.16 396.55424 1220.87424 547.84 1034.24 547.84c-3.4816 0-6.9632-0.06144-10.40384-0.16384 0.1024 3.46112 0.16384 6.92224 0.16384 10.40384C1024 744.71424 872.71424 896 686.08 896S348.16 744.71424 348.16 558.08c0-3.4816 0.06144-6.9632 0.16384-10.40384A344.18688 344.18688 0 0 1 337.92 547.84C151.28576 547.84 0 396.55424 0 209.92c0-183.1936 145.79712-332.34944 327.68-337.77664V-128h307.2V100.90496h-121.38496c-33.6896 0-46.20288 22.9376-27.52512 51.28192l187.8016 284.75392c12.36992 18.7392 32.64512 18.86208 45.07648 0l187.8016-284.75392c18.75968-28.40576 6.36928-51.28192-27.50464-51.28192H757.76V-128z"  horiz-adv-x="1372" />

    
    <glyph glyph-name="tuceng_copy1" unicode="&#59002;" d="M512 896C230.4 896 0 665.6 0 384s230.4-512 512-512 512 230.4 512 512S793.6 896 512 896z m266.24-552.96H245.76c-20.48 0-40.96 15.36-40.96 40.96s15.36 40.96 40.96 40.96h532.48c20.48 0 40.96-15.36 40.96-40.96s-20.48-40.96-40.96-40.96z"  horiz-adv-x="1024" />

    
    <glyph glyph-name="cancel" unicode="&#59003;" d="M477.341538 594.392615L198.734769 872.999385a78.848 78.848 0 0 1-110.907077-0.315077l-64.590769-64.512a77.981538 77.981538 0 0 1-0.236308-110.907077L301.686154 418.658462 23.000615 140.130462a78.848 78.848 0 0 1 0.315077-110.985847l64.512-64.512a77.981538 77.981538 0 0 1 110.907077-0.236307L477.341538 242.924308l278.528-278.528a78.848 78.848 0 0 1 110.985847 0.236307l64.512 64.59077a77.981538 77.981538 0 0 1 0.236307 110.907077L653.075692 418.658462l278.528 278.606769a78.848 78.848 0 0 1-0.236307 110.907077l-64.59077 64.590769A77.981538 77.981538 0 0 1 755.948308 872.920615L477.341538 594.313846z"  horiz-adv-x="1024" />

    
    <glyph glyph-name="edit1" unicode="&#59004;" d="M29.257143 224.256L0-108.032l365.714286 26.550857 490.057143 445.293714-336.457143 299.081143L29.257143 224.256zM709.485714 842.313143L585.142857 729.380571l336.457143-299.154285 117.028571 106.422857c65.828571 59.757714 7.314286 199.387429-51.2 252.489143C928.914286 848.969143 804.571429 922.112 709.485714 842.313143z"  horiz-adv-x="1097" />

    
    <glyph glyph-name="delete2" unicode="&#59005;" d="M889.152 759.872H595.2V861.952c0 17.024-5.568 22.72-16.64 22.72H445.44c-5.568 0-11.072 0-16.64-5.696-5.568-5.696-5.568-11.328-5.568-17.024v-102.08H134.848c-5.568 0-11.136 0-16.64-5.76-5.568-5.632-5.568-11.264-5.568-16.96v-79.424c0-5.696 5.568-17.024 22.208-17.024h754.304c5.568 0 11.136 0 16.64 5.696 5.568 5.632 5.568 11.328 5.568 17.024v79.36c0 5.76-11.072 17.088-22.208 17.088zM234.688-113.856H312.32V572.608H212.48zM373.312 572.608H478.72v-686.464H373.312zM545.28 572.608h105.408v-686.464H545.28zM706.112-113.856h83.2l27.776 686.464H706.112z"  horiz-adv-x="1024" />

    
    <glyph glyph-name="confirm" unicode="&#59007;" d="M531.062154-104.841846c-8.664615-8.822154-26.072615-17.644308-34.816-17.644308-17.408 0-26.151385 8.822154-34.816 17.644308l-17.408 17.644308L17.329231 336.896C8.743385 345.718154 0 354.540308 0 372.184615s8.664615 26.545231 17.408 35.367385l104.448 106.023385c8.664615 8.822154 26.151385 17.644308 34.816 17.644307 8.743385 0 26.151385-8.822154 34.894769-17.644307L487.502769 213.070769 1114.348308 840.388923c8.664615 8.822154 26.151385 17.644308 34.816 17.644308 8.743385 0 26.151385-8.822154 34.894769-17.644308l104.448-106.023385c8.664615-8.822154 17.329231-17.644308 17.329231-35.288615 0-17.723077 0-26.545231-8.664616-35.367385l-766.109538-768.551384z"  horiz-adv-x="1339" />

    
    <glyph glyph-name="termset" unicode="&#59008;" d="M835.456 666.368L636.224 865.6A95.68 95.68 0 0 1 568.64 893.696L127.552 895.168A128.96 128.96 0 0 1 0.832 766.72v-765.632c0-70.912 57.472-128.256 128.192-128.256h447.744a328.256 328.256 0 0 0-61.312 60.16l0.128-0.128H127.552a68.672 68.672 0 0 0-68.48 68.48V766.72c0 37.632 30.848 68.416 66.816 68.416 3.392 0 362.624 0 455.04-1.792l6.848-5.12V696.32c0-42.496 34.56-77.056 77.056-77.056h133.568l5.12-5.184v-168.32c20.672-2.304 40.704-6.464 60.032-12.544V598.656c0 26.432-10.752 50.368-28.096 67.712zM223.488 191.36a32.512 32.512 0 1 1 0-65.088h224.768l-0.128 2.112c0 21.568 2.176 42.56 6.4 62.912h-231.04z m544.128 14.72c-39.616 0-69.248-32.512-69.248-75.904 0-43.392 29.76-75.968 69.248-75.968 39.616 0 69.248 32.576 69.248 75.968 1.792 41.6-29.632 75.968-69.248 75.968zM767.616 320c-115.456 0-216.064-79.552-255.552-191.744 39.616-112.128 138.496-191.744 255.552-191.744 117.12 0 216.064 81.408 255.552 193.536-39.488 110.528-138.368 190.016-255.552 190.016z m0-318.272c-64.32 0-115.456 56.064-115.456 126.528 0 70.528 51.2 126.592 115.456 126.592 64.32 0 115.456-56.064 115.456-126.592 1.728-70.464-49.408-126.528-115.456-126.528z m-94.144 509.824c-1.792 17.088-15.488 32.512-34.304 32.512H223.488a32.512 32.512 0 1 1 0-65.024h417.408a32.512 32.512 0 0 1 32.576 32.512zM556.736 367.744H223.488a32.512 32.512 0 0 1-32.512-32.512c0-18.88 13.632-32.512 32.512-32.512h276.672c0-0.128 26.944 42.624 56.576 65.024z"  horiz-adv-x="1024" />

    
    <glyph glyph-name="copy" unicode="&#59006;" d="M871.822431 565.755108h-124.180508v137.877995a80.6797 80.6797 0 0 1-81.733353 79.776569H167.380273a80.6797 80.6797 0 0 1-81.733353-79.776569V217.146553a80.6797 80.6797 0 0 1 81.733353-79.626047h173.551669v-91.36675a62.014993 62.014993 0 0 1 62.918124-61.412906h471.434367a62.165515 62.165515 0 0 1 63.068647 61.412906V505.997942a70.143172 70.143172 0 0 1-66.380127 60.208732zM165.574011 202.09437a13.245921 13.245921 0 0 0-13.546964 12.944877V701.826841a13.245921 13.245921 0 0 0 13.546964 13.546965h498.678819a13.245921 13.245921 0 0 0 13.546964-13.245921v-137.877995H400.538586a62.014993 62.014993 0 0 1-62.918124-61.412906v-302.398354H165.574011v1.65574z"  horiz-adv-x="1024" />

    
    <glyph glyph-name="Group" unicode="&#59030;" d="M73.142857 508.196571C73.142857 508.416 1243.428571 508.342857 1243.428571 508.342857V823.003429C1243.428571 822.784 73.142857 822.857143 73.142857 822.857143v-314.660572zM0 823.003429C0 863.305143 32.548571 896 72.630857 896h1171.309714A73.142857 73.142857 0 0 0 1316.571429 823.003429v-314.806858a72.850286 72.850286 0 0 0-72.630858-72.996571H72.630857A73.142857 73.142857 0 0 0 0 508.196571V823.003429zM73.142857-55.003429C73.142857-54.784 1243.428571-54.857143 1243.428571-54.857143V259.803429C1243.428571 259.584 73.142857 259.657143 73.142857 259.657143v-314.660572zM0 259.803429C0 300.105143 32.548571 332.8 72.630857 332.8h1171.309714a73.142857 73.142857 0 0 0 72.630858-72.996571v-314.806858a72.850286 72.850286 0 0 0-72.630858-72.996571H72.630857A73.142857 73.142857 0 0 0 0-55.003429V259.803429zM1089.462857 36.644571a22.162286 22.162286 0 0 0-33.206857 0l-95.305143 103.350858c-18.139429 19.748571-11.117714 35.620571 15.579429 35.620571h192.658285c26.697143 0 33.718857-15.872 15.579429-35.620571l-95.305143-103.350858z"  horiz-adv-x="1316" />

    
    <glyph glyph-name="sort" unicode="&#59066;" d="M370.447059 808.658824c-15.058824 6.023529-33.129412 3.011765-43.670588-9.035295L82.823529 561.694118c-16.564706-15.058824-16.564706-40.658824 0-55.717647s42.164706-15.058824 57.22353 0l174.682353 171.670588v-661.082353c0-22.588235 18.070588-39.152941 40.658823-39.152941 22.588235 0 40.658824 18.070588 40.658824 39.152941V772.517647c-1.505882 15.058824-10.541176 30.117647-25.6 36.141177z m572.235294-566.211765c-16.564706 15.058824-42.164706 15.058824-57.223529 0l-134.02353-131.011765V772.517647c0 22.588235-18.070588 39.152941-40.658823 39.152941s-40.658824-18.070588-40.658824-39.152941v-757.458823c0-16.564706 10.541176-30.117647 25.6-36.141177 4.517647-1.505882 10.541176-3.011765 15.058824-3.011765 10.541176 0 21.082353 4.517647 28.611764 12.047059l203.294118 198.776471c15.058824 15.058824 15.058824 40.658824 0 55.717647z"  horiz-adv-x="1024" />

    
    <glyph glyph-name="pic" unicode="&#59067;" d="M114.447059 763.482353c-39.152941 0-70.776471-31.623529-70.776471-70.776471v-621.929411c0-39.152941 31.623529-70.776471 70.776471-70.776471H888.470588c39.152941 0 70.776471 31.623529 70.776471 70.776471V691.2c0 39.152941-31.623529 70.776471-70.776471 70.776471H114.447059z m594.823529-340.329412s-10.541176 19.576471-46.682353 19.576471c-42.164706 0-54.211765-19.576471-54.211764-19.576471L450.258824 173.176471s-9.035294-16.564706-30.117648-16.564706c-22.588235 0-33.129412 16.564706-33.129411 16.564706l-82.82353 97.882353s-21.082353 28.611765-48.188235 28.611764c-27.105882 0-49.694118-31.623529-49.694118-31.623529l-64.752941-78.305883V630.964706c0 19.576471 16.564706 36.141176 36.141177 36.141176h649.035294c19.576471 0 36.141176-16.564706 36.141176-36.141176v-411.105882L709.270588 423.152941z m-240.941176 52.705883c0-52.705882-43.670588-94.870588-97.882353-94.870589s-97.882353 42.164706-97.882353 94.870589 43.670588 94.870588 97.882353 94.870588c54.211765 1.505882 97.882353-42.164706 97.882353-94.870588z"  horiz-adv-x="1024" />

    
    <glyph glyph-name="upload1" unicode="&#59068;" d="M561.694118 34.635294h195.764706c123.482353 3.011765 222.870588 105.411765 222.870588 230.4 0 126.494118-102.4 230.4-230.4 230.4h-7.529412v7.529412c0 126.494118-102.4 230.4-230.4 230.4s-230.4-102.4-230.4-230.4v-7.529412h-7.529412C147.576471 495.435294 45.176471 393.035294 45.176471 265.035294c0-124.988235 99.388235-225.882353 222.870588-230.4h209.317647V191.247059h-82.82353c-22.588235 0-31.623529 15.058824-18.070588 34.635294l128 194.258823c9.035294 12.047059 22.588235 13.552941 30.117647 0L662.588235 225.882353c12.047059-19.576471 4.517647-34.635294-18.070588-34.635294h-82.823529v-156.611765z"  horiz-adv-x="1024" />

    
    <glyph glyph-name="audit" unicode="&#59070;" d="M197.270588 531.576471h429.176471c9.035294 0 18.070588 7.529412 18.070588 18.070588v30.117647c0 9.035294-7.529412 18.070588-18.070588 18.070588H197.270588c-9.035294 0-18.070588-7.529412-18.070588-18.070588v-30.117647c0-12.047059 9.035294-18.070588 18.070588-18.070588zM974.305882 4.517647l-135.529411 135.529412c25.6 34.635294 39.152941 76.8 39.152941 120.470588 0 78.305882-43.670588 146.070588-108.42353 182.211765V656.564706c0 66.258824-55.717647 121.976471-121.97647 121.97647H167.152941C100.894118 778.541176 45.176471 722.823529 45.176471 656.564706v-549.647059c0-66.258824 55.717647-121.976471 121.97647-121.976471H647.529412c57.223529 0 105.411765 42.164706 120.470588 94.870589 13.552941 7.529412 25.6 16.564706 37.647059 25.6l134.023529-134.02353c4.517647-4.517647 12.047059-7.529412 18.070588-7.529411s13.552941 3.011765 18.070589 7.529411c9.035294 9.035294 9.035294 24.094118-1.505883 33.129412zM647.529412 30.117647H167.152941c-42.164706 0-76.8 34.635294-76.8 76.8V656.564706c0 42.164706 34.635294 76.8 76.8 76.8H647.529412c42.164706 0 76.8-34.635294 76.8-76.8v-195.764706c-16.564706 4.517647-34.635294 7.529412-52.705883 7.529412-51.2 0-99.388235-18.070588-134.023529-51.2-3.011765 3.011765-4.517647 3.011765-9.035294 3.011764H194.258824c-9.035294 0-16.564706-7.529412-16.564706-18.070588v-30.117647c0-9.035294 7.529412-18.070588 16.564706-18.070588h290.635294c-13.552941-27.105882-22.588235-60.235294-22.588236-94.870588v-13.552941H194.258824c-9.035294 0-18.070588-7.529412-18.070589-18.070589v-30.117647c0-9.035294 7.529412-18.070588 18.070589-18.070588H466.823529c4.517647 0 7.529412 3.011765 12.047059 4.517647 30.117647-76.8 103.905882-131.011765 191.247059-131.011765 12.047059 0 22.588235 0 34.635294 3.011765-13.552941-13.552941-34.635294-25.6-57.223529-25.6z m22.588235 78.305882c-85.835294 0-155.105882 69.270588-155.105882 155.105883s69.270588 155.105882 155.105882 155.105882S825.223529 349.364706 825.223529 263.529412s-69.270588-155.105882-155.105882-155.105883z"  horiz-adv-x="1024" />

    
    <glyph glyph-name="user_profile_icon_" unicode="&#59071;" d="M746.917647 249.976471v-1.505883c-7.529412-9.035294-19.576471-12.047059-30.117647-6.023529l-121.976471 73.788235c-4.517647 3.011765-10.541176 4.517647-15.058823 1.505882-4.517647-3.011765-7.529412-7.529412-7.529412-13.552941s3.011765-10.541176 7.529412-13.552941l117.458823-70.77647-6.023529-9.035295c-9.035294-12.047059-27.105882-16.564706-40.658824-7.529411l-85.835294 52.705882c-3.011765 1.505882-6.023529 3.011765-9.035294 3.011765-6.023529 0-12.047059-4.517647-13.552941-12.047059-1.505882-7.529412 1.505882-13.552941 6.023529-16.564706l85.835295-52.705882c4.517647-3.011765 9.035294-6.023529 15.058823-6.02353l-4.517647-6.023529c-9.035294-13.552941-28.611765-16.564706-42.164706-9.035294l-69.270588 40.658823c-3.011765 1.505882-4.517647 3.011765-7.529412 3.011765-7.529412 1.505882-13.552941-4.517647-15.058823-10.541177s1.505882-13.552941 7.529411-16.564705l61.741177-34.635295-6.02353-10.541176c-6.023529-9.035294-16.564706-12.047059-27.105882-9.035294l-82.823529 31.623529 7.529411 10.541177c13.552941 21.082353 7.529412 49.694118-13.552941 63.247059-6.023529 4.517647-13.552941 6.023529-19.57647 7.529411 1.505882 15.058824-6.023529 30.117647-21.082353 40.658824-4.517647 3.011765-10.541176 6.023529-15.058824 6.023529 6.023529 18.070588-1.505882 40.658824-18.070588 51.2l-1.505882 1.505883c-10.541176 6.023529-22.588235 9.035294-33.129412 6.023529-10.541176-3.011765-19.576471-7.529412-27.105882-16.564706-3.011765 4.517647-6.023529 7.529412-12.047059 10.541177-10.541176 6.023529-22.588235 9.035294-33.129412 6.023529-7.529412-1.505882-15.058824-6.023529-21.082353-10.541176l-45.176471 46.682353 99.388236 156.611764 46.682353-22.588235h30.117647l-54.211765-82.823529c-3.011765-4.517647-4.517647-10.541176-1.505882-15.058824 3.011765-4.517647 7.529412-7.529412 13.552941-7.529412h73.788235c15.058824 0 30.117647 7.529412 37.647059 21.082353l12.047059 18.070588c3.011765 4.517647 7.529412 6.023529 12.047059 6.02353h19.57647c3.011765 0 6.023529-1.505882 9.035294-3.011765l231.905883-153.6c12.047059-15.058824 15.058824-30.117647 6.023529-40.658823zM972.8 393.035294c-4.517647 3.011765-10.541176 3.011765-15.058824-1.505882L864.376471 338.823529 689.694118 614.4c-3.011765 4.517647-7.529412 7.529412-12.047059 7.529412-6.023529 0-10.541176-3.011765-13.552941-7.529412-3.011765-4.517647-3.011765-10.541176 1.505882-15.058824l34.635294-54.211764-18.070588-10.541177c-4.517647-1.505882-7.529412-3.011765-10.541177-1.505882l-85.835294 25.6c-6.023529 1.505882-13.552941 3.011765-21.082353 3.011765h-96.37647c-24.094118 0-46.682353-12.047059-60.235294-30.117647h-43.670589L326.776471 549.647059l30.117647 49.694117c3.011765 4.517647 3.011765 10.541176 1.505882 15.058824-3.011765 6.023529-7.529412 9.035294-13.552941 7.529412-4.517647-1.505882-9.035294-3.011765-12.047059-7.529412L159.623529 340.329412l-93.364705 52.705882c-4.517647 3.011765-10.541176 3.011765-15.058824 1.505882-4.517647-3.011765-7.529412-7.529412-7.529412-13.552941 1.505882-6.023529 3.011765-10.541176 9.035294-13.552941l105.411765-60.235294c7.529412-4.517647 15.058824-1.505882 21.082353 6.023529l18.070588 30.117647 43.670588-43.670588-16.564705-25.6c-13.552941-21.082353-7.529412-49.694118 13.552941-63.247059 6.023529-4.517647 12.047059-6.023529 18.070588-6.023529-1.505882-15.058824 6.023529-33.129412 19.576471-42.164706l1.505882-1.505882c10.541176-6.023529 22.588235-9.035294 33.129412-6.02353 3.011765-9.035294 9.035294-18.070588 18.070588-25.6 12.047059-7.529412 25.6-9.035294 37.647059-6.023529 4.517647-7.529412 9.035294-15.058824 16.564706-21.082353 21.082353-13.552941 49.694118-7.529412 63.247058 13.552941l3.011765 4.517647 87.341177-33.129412c22.588235-9.035294 49.694118-1.505882 63.247058 21.082353l9.035295 15.058824c22.588235-4.517647 46.682353 6.023529 61.741176 25.6l13.552941 18.070588c1.505882 1.505882 3.011765 4.517647 3.011765 6.02353 12.047059 4.517647 22.588235 10.541176 30.117647 22.588235l12.047059 16.564706c16.564706-1.505882 33.129412 7.529412 43.670588 21.082353l1.505882 1.505882c15.058824 21.082353 13.552941 48.188235-3.011764 67.764706l46.682353 60.235294 30.117647-48.188235c4.517647-7.529412 13.552941-9.035294 21.082353-6.02353l105.411764 60.235294c4.517647 3.011765 7.529412 7.529412 9.035294 13.552942-1.505882 1.505882-4.517647 7.529412-10.541176 10.541176z m-724.329412-138.541176l27.105883 42.164706c4.517647 7.529412 13.552941 9.035294 21.082353 4.517647 6.023529-4.517647 9.035294-10.541176 6.023529-18.070589L271.058824 233.411765c-4.517647-4.517647-12.047059-4.517647-16.564706-1.505883-9.035294 6.023529-12.047059 15.058824-6.02353 22.588236z m43.670588-70.776471l-1.505882 1.505882c-7.529412 4.517647-9.035294 13.552941-4.517647 21.082353l6.023529 9.035294c3.011765 3.011765 4.517647 4.517647 6.02353 7.529412l27.105882 42.164706c1.505882 1.505882 1.505882 3.011765 3.011765 4.517647l18.070588 28.611765c4.517647 7.529412 13.552941 9.035294 21.082353 4.517647l1.505882-1.505882c7.529412-4.517647 9.035294-13.552941 4.517648-21.082353l-13.552942-22.588236c-1.505882-1.505882-3.011765-3.011765-3.011764-4.517647l-42.164706-63.247059-1.505883-1.505882-1.505882-1.505882c-4.517647-4.517647-12.047059-7.529412-19.576471-3.011765z m51.2-30.117647c-7.529412 4.517647-9.035294 12.047059-4.517647 19.576471l43.670589 67.764705c4.517647 4.517647 12.047059 6.023529 18.070588 1.505883 7.529412-4.517647 9.035294-13.552941 4.517647-21.082353l-4.517647-6.02353c-3.011765-3.011765-4.517647-4.517647-6.02353-7.529411l-27.105882-42.164706c-1.505882-1.505882-3.011765-4.517647-3.011765-6.02353l-1.505882-1.505882c-3.011765-7.529412-12.047059-10.541176-19.576471-4.517647z m76.8-22.588235c-4.517647-7.529412-13.552941-9.035294-21.082352-4.517647-6.023529 4.517647-9.035294 10.541176-6.02353 16.564706l31.62353 49.694117c4.517647 4.517647 12.047059 4.517647 16.564705 1.505883 7.529412-4.517647 9.035294-13.552941 4.517647-21.082353l-25.6-42.164706z m326.776471 118.964706v-1.505883c-7.529412-9.035294-19.576471-12.047059-30.117647-6.023529l-121.976471 73.788235c-4.517647 3.011765-10.541176 4.517647-15.058823 1.505882-4.517647-3.011765-7.529412-7.529412-7.529412-13.552941s3.011765-10.541176 7.529412-13.552941l117.458823-70.77647-6.023529-9.035295c-9.035294-12.047059-27.105882-16.564706-40.658824-7.529411l-85.835294 52.705882c-3.011765 1.505882-6.023529 3.011765-9.035294 3.011765-6.023529 0-12.047059-4.517647-13.552941-12.047059-1.505882-7.529412 1.505882-13.552941 6.023529-16.564706l85.835295-52.705882c4.517647-3.011765 9.035294-6.023529 15.058823-6.02353l-4.517647-6.023529c-9.035294-13.552941-28.611765-16.564706-42.164706-9.035294l-69.270588 40.658823c-3.011765 1.505882-4.517647 3.011765-7.529412 3.011765-7.529412 1.505882-13.552941-4.517647-15.058823-10.541177s1.505882-13.552941 7.529411-16.564705l61.741177-34.635295-6.02353-10.541176c-6.023529-9.035294-16.564706-12.047059-27.105882-9.035294l-82.823529 31.623529 7.529411 10.541177c13.552941 21.082353 7.529412 49.694118-13.552941 63.247059-6.023529 4.517647-13.552941 6.023529-19.57647 7.529411 1.505882 15.058824-6.023529 30.117647-21.082353 40.658824-4.517647 3.011765-10.541176 6.023529-15.058824 6.023529 6.023529 18.070588-1.505882 40.658824-18.070588 51.2l-1.505882 1.505883c-10.541176 6.023529-22.588235 9.035294-33.129412 6.023529-10.541176-3.011765-19.576471-7.529412-27.105882-16.564706-3.011765 4.517647-6.023529 7.529412-12.047059 10.541177-10.541176 6.023529-22.588235 9.035294-33.129412 6.023529-7.529412-1.505882-15.058824-6.023529-21.082353-10.541176l-45.176471 46.682353 99.388236 156.611764 46.682353-22.588235h30.117647l-54.211765-82.823529c-3.011765-4.517647-4.517647-10.541176-1.505882-15.058824 3.011765-4.517647 7.529412-7.529412 13.552941-7.529412h73.788235c15.058824 0 30.117647 7.529412 37.647059 21.082353l12.047059 18.070588c3.011765 4.517647 7.529412 6.023529 12.047059 6.02353h19.57647c3.011765 0 6.023529-1.505882 9.035294-3.011765l231.905883-153.6c12.047059-15.058824 15.058824-30.117647 6.023529-40.658823z m-1.505882 67.764705L527.058824 462.305882c-7.529412 4.517647-16.564706 7.529412-25.6 7.529412H481.882353c-15.058824 0-30.117647-7.529412-37.647059-21.082353l-12.047059-18.070588c-3.011765-4.517647-7.529412-6.023529-12.047059-6.023529h-46.682352l57.223529 85.835294c9.035294 12.047059 22.588235 21.082353 37.647059 21.082353h94.870588c4.517647 0 9.035294-1.505882 12.047059-1.505883L662.588235 504.470588c10.541176-3.011765 22.588235-3.011765 33.129412 3.011765l19.576471 9.035294c1.505882 0 1.505882 1.505882 1.505882 1.505882l84.329412-132.517647-55.717647-67.764706zM132.517647 409.6m-15.058823 0a15.058824 15.058824 0 1 1 30.117647 0 15.058824 15.058824 0 1 1-30.117647 0ZM889.976471 409.6m-15.058824 0a15.058824 15.058824 0 1 1 30.117647 0 15.058824 15.058824 0 1 1-30.117647 0ZM799.623529 384l-54.211764-67.764706-209.317647 140.047059s25.6 16.564706 61.741176 19.576471 70.776471-15.058824 91.858824-10.541177c21.082353 4.517647 46.682353 21.082353 46.682353 21.082353l63.247058-102.4z"  horiz-adv-x="1024" />

    
    <glyph glyph-name="user_profile_icon_1" unicode="&#59072;" d="M658.070588 632.470588H305.694118v13.552941h-13.552942v21.082353h-106.917647v-686.682353h581.270589V667.105882h-106.917647l-1.505883-34.635294z m-224.37647-141.552941h179.2v-19.576471H433.694118v19.576471z m0-203.294118h179.2v-19.57647H433.694118v19.57647z m-134.02353-269.552941c-46.682353 0-84.329412 37.647059-84.329412 82.82353s37.647059 82.823529 84.329412 82.823529 84.329412-37.647059 84.329412-82.823529-37.647059-82.823529-84.329412-82.82353z m0 203.294118c-46.682353 0-84.329412 36.141176-84.329412 82.823529 0 45.176471 37.647059 82.823529 84.329412 82.82353s85.835294-37.647059 84.329412-82.82353c0-45.176471-37.647059-82.823529-84.329412-82.823529z m0 204.8c-46.682353 0-84.329412 37.647059-84.329412 82.823529s37.647059 82.823529 84.329412 82.82353 84.329412-37.647059 84.329412-82.82353-37.647059-82.823529-84.329412-82.823529z m311.717647-362.917647H432.188235V82.823529h179.2v-19.57647z m81.317647 54.211765H433.694118v19.57647H692.705882v-19.57647z m0 204.8H433.694118v19.57647H692.705882v-19.57647z m0 203.294117H433.694118v19.576471H692.705882v-19.576471zM299.670588 370.447059c-37.647059 0-66.258824-30.117647-66.258823-66.258824 0-36.141176 30.117647-66.258824 66.258823-66.258823s66.258824 30.117647 66.258824 66.258823c0 37.647059-30.117647 66.258824-66.258824 66.258824zM283.105882 263.529412l-28.611764 28.611764 13.552941 13.552942 15.058823-15.058824 49.694118 49.694118 13.552941-13.552941-63.247059-63.247059zM299.670588 575.247059c-37.647059 0-66.258824-30.117647-66.258823-66.258824 0-36.141176 30.117647-66.258824 66.258823-66.258823s66.258824 28.611765 66.258824 66.258823c0 37.647059-30.117647 66.258824-66.258824 66.258824z m-16.564706-108.42353l-28.611764 30.117647 13.552941 13.552942 15.058823-15.058824 49.694118 49.694118 13.552941-13.552941-63.247059-64.752942zM299.670588 167.152941c-37.647059 0-66.258824-30.117647-66.258823-66.258823 0-36.141176 30.117647-66.258824 66.258823-66.258824s66.258824 28.611765 66.258824 66.258824c0 37.647059-30.117647 66.258824-66.258824 66.258823z m-16.564706-108.423529l-28.611764 30.117647 13.552941 13.552941 15.058823-15.058824 49.694118 49.694118 13.552941-13.552941-63.247059-64.752941zM849.317647 278.588235h22.588235v-236.423529h-22.588235zM457.788235 745.411765h21.082353v-19.576471h-21.082353zM643.011765 749.929412H542.117647c-6.023529 36.141176-37.647059 64.752941-75.294118 64.752941-39.152941 0-69.270588-28.611765-73.788235-64.752941h-100.894118v-45.176471H149.082353V-37.647059H783.058824V701.741176h-140.047059V749.929412zM310.211765 730.352941h100.894117v9.035294c0 30.117647 25.6 54.211765 54.211765 54.211765s54.211765-25.6 54.211765-54.211765v-9.035294h100.894117v-63.247059H310.211765V730.352941z m454.77647-48.188235v-701.741177H168.658824V682.164706h121.97647v-36.141177h350.870588v36.141177h123.482353zM855.341176 391.529412l-34.635294-69.270588v-325.270589c0-19.576471 15.058824-34.635294 34.635294-34.635294 19.576471 0 34.635294 15.058824 34.635295 34.635294V322.258824l-34.635295 69.270588z m-15.058823-73.788236l15.058823 30.117648 13.552942-30.117648v-13.552941h-30.117647v13.552941z m31.623529-322.258823c0-7.529412-7.529412-13.552941-15.058823-13.552941s-13.552941 6.023529-13.552941 13.552941v25.6h30.117647v-25.6z m0 46.682353h-30.117647V284.611765h30.117647v-242.447059zM433.694118 545.129412H692.705882v-19.576471H433.694118zM433.694118 490.917647h179.2v-19.576471H433.694118zM433.694118 341.835294H692.705882v-19.57647H433.694118zM433.694118 287.623529h179.2v-19.57647H433.694118zM433.694118 137.035294H692.705882v-19.57647H433.694118zM433.694118 82.823529h179.2v-19.57647H433.694118zM283.105882 493.929412l-15.058823 16.564706-13.552941-13.552942 28.611764-30.117647 63.247059 63.247059-12.047059 13.552941zM283.105882 290.635294l-15.058823 16.564706-13.552941-13.552941 28.611764-30.117647 63.247059 64.752941-12.047059 13.552941zM283.105882 85.835294l-15.058823 16.564706-13.552941-13.552941 28.611764-30.117647 63.247059 64.752941-12.047059 13.552941z"  horiz-adv-x="1024" />

    
    <glyph glyph-name="bossicon-" unicode="&#59048;" d="M880.402176 853.402323H144.199912a55.241511 55.241511 0 0 1-56.445686-53.585771v-831.633104a55.241511 55.241511 0 0 1 56.445686-53.585771h736.202264a55.241511 55.241511 0 0 1 56.445685 53.585771V799.816552a55.241511 55.241511 0 0 1-56.445685 53.585771z m-493.86212-436.513303a35.974717 35.974717 0 0 0 46.210201 20.772012s66.831692-24.535058 120.417463 20.169925A73.906218 73.906218 0 0 1 577.702778 534.747611a106.569455 106.569455 0 0 0 136.523299 139.834779 99.344407 99.344407 0 0 0 63.068646-63.821255 97.237101 97.237101 0 0 0-5.870351-83.690137 16.858445 16.858445 0 0 0-1.204175-2.709393 105.36528 105.36528 0 0 0-41.99559-42.748199l-3.913568-2.107306a73.755696 73.755696 0 0 1-33.867411-74.357783c10.386006-68.938998 76.766133-94.979274 76.766132-94.979274h0.903131A35.974717 35.974717 0 0 0 788.734382 263.80832l-25.287667-66.380127-68.186389 25.739233-12.493311-32.813759a35.974717 35.974717 0 0 0-46.210202-20.772012L436.513303 245.294135a35.974717 35.974717 0 0 0-20.772012 46.210201L427.481993 324.017051 361.252389 350.057328z m442.383654-344.694988a17.008967 17.008967 0 0 0-17.460532-16.557401H213.138909A17.008967 17.008967 0 0 0 195.678377 72.495076v11.590181a17.008967 17.008967 0 0 0 17.460532 16.557401h598.324269a17.008967 17.008967 0 0 0 17.460532-16.557401zM464.660885 272.538586l168.584448-64.122299a17.912098 17.912098 0 0 1 23.180362 10.235484l5.870351 16.858445-201.548729 76.916654-6.321916-16.707922a17.912098 17.912098 0 0 1 10.235484-23.180362z"  horiz-adv-x="1024" />

    
    <glyph glyph-name="bossicon-1" unicode="&#59049;" d="M889.282963 29.596355H141.038953a97.98971 97.98971 0 0 0-97.839188 97.839188v541.878583a97.98971 97.98971 0 0 0 97.839188 97.839189h748.24401a97.98971 97.98971 0 0 0 97.839189-97.839189v-541.878583a97.98971 97.98971 0 0 0-97.839189-97.839188z m-748.24401 662.296045a22.879318 22.879318 0 0 1-22.578274-22.578274v-541.878583a22.879318 22.879318 0 0 1 22.578274-22.578274h748.24401a22.879318 22.879318 0 0 1 22.578275 22.578274v541.878583a22.879318 22.879318 0 0 1-22.578275 22.578274zM141.038953 743.822431h748.24401a60.208731 60.208731 0 0 0 60.208732-60.208731v-141.189475H80.830222v141.189475a60.208731 60.208731 0 0 0 60.208731 60.208731zM172.799059 382.570043l55.09099 0 0-114.095546-55.09099 0 0 114.095546ZM270.036161 382.570043l55.090989 0 0-114.095546-55.090989 0 0 114.095546ZM385.636925 382.570043l55.090989 0 0-114.095546-55.090989 0 0 114.095546ZM478.358371 382.570043l55.09099 0 0-114.095546-55.09099 0 0 114.095546ZM574.54182 382.570043l55.090989 0 0-114.095546-55.090989 0 0 114.095546ZM719.343819 382.570043l55.090989 0 0-114.095546-55.090989 0 0 114.095546Z"  horiz-adv-x="1024" />

    
    <glyph glyph-name="bossicon-2" unicode="&#59050;" d="M775.488461 437.51051a115.600764 115.600764 0 0 1-115.600764-115.450242 115.600764 115.600764 0 1 1 231.051007 0 115.600764 115.600764 0 0 1-115.450243 115.450242zM910.958107 151.820079a187.851242 187.851242 0 0 0-123.879465-41.845068c-48.016463 0-106.268411 12.34279-140.135823 43.500808-42.296634-53.585771-55.542555-110.031457-55.542554-177.766279a257.392327 257.392327 0 0 1 3.010436-46.511245A807.098045 807.098045 0 0 1 782.713509-92.62737a790.691166 790.691166 0 0 1 185.743936 22.27723 244.597971 244.597971 0 0 1 3.31148 45.156549 264.767897 264.767897 0 0 1-60.810818 177.01367zM240.834926 525.415258h-51.327944a18.062619 18.062619 0 1 1 0-36.125239H240.834926a18.062619 18.062619 0 1 1 0 36.125239zM240.834926 458.282522h-51.327944a18.062619 18.062619 0 1 1 0-36.125238H240.834926a18.062619 18.062619 0 1 1 0 36.125238zM240.834926 390.999265h-51.327944a18.062619 18.062619 0 1 1 0-36.125239H240.834926a18.062619 18.062619 0 1 1 0 36.125239zM394.066147 491.84889h-50.725856a18.062619 18.062619 0 1 1 0-36.125239h50.725856a18.062619 18.062619 0 1 1 0 36.125239zM637.610466 193.665148a202.150816 202.150816 0 0 1 135.469646-54.187859 185.743936 185.743936 0 0 1 43.350286 5.268264 436.513303 436.513303 0 0 1 32.813759 45.909158 150.521829 150.521829 0 0 0-216.600911 75.260914 41.99559 41.99559 0 0 0-24.234015-15.052182l-41.393503-7.977657a41.694547 41.694547 0 0 0-49.070116 32.512715l-63.219168 325.428193a41.694547 41.694547 0 0 0 33.415846 48.468029l41.393503 7.977657a41.694547 41.694547 0 0 0 49.070116-32.512715l50.575335-260.703807a150.521829 150.521829 0 0 0 283.282081 12.041746c1.354696 14.299574 2.107306 28.599147 2.107306 43.199765A435.760694 435.760694 0 1 1 565.359988-7.130972v4.816699a313.838013 313.838013 0 0 0 72.250478 195.979421z m-359.74717 91.818315a41.694547 41.694547 0 0 0-41.995591-41.242981h-42.146112a41.694547 41.694547 0 0 0-41.99559 41.242981v331.148023a41.694547 41.694547 0 0 0 41.99559 41.242981h42.146112a41.694547 41.694547 0 0 0 41.995591-41.242981z m153.682787 0a41.694547 41.694547 0 0 0-41.995591-41.242981h-42.146112a41.694547 41.694547 0 0 0-41.99559 41.242981v331.148023a41.694547 41.694547 0 0 0 41.99559 41.242981h42.146112a41.694547 41.694547 0 0 0 41.995591-41.242981zM394.066147 424.565633h-50.725856a18.062619 18.062619 0 1 1 0-36.125239h50.725856a18.062619 18.062619 0 1 1 0 36.125239z"  horiz-adv-x="1024" />

    
    <glyph glyph-name="bossicon-3" unicode="&#59051;" d="M669.822137 353.368808l-49.822725-50.424813-36.275761 32.362193-44.102895 42.7482 79.02396 84.442746a227.438483 227.438483 0 0 1 242.641187 30.104365c60.208731 52.833162 60.208731 156.542702 60.208732 156.542702L873.026606 668.862561l-93.624577-94.678231-136.523299 135.469646L737.55696 804.783772l-19.116272 48.618551s-94.377187 0-157.144789-62.767603a209.375864 209.375864 0 0 1-35.824195-239.329708l-82.034397-79.92709-118.009114 114.547111-7.074526 80.228135-110.483022 71.196825-31.158018-31.158019-31.007497-31.30854-31.158018-31.158019 71.046303-110.633544 75.260914-6.62296 120.417463-115.299721-309.171836-301.043657s-8.880788-55.392033 27.244451-91.517272c29.050713-29.201235 81.883875-23.180362 81.883875-23.180362L481.669852 315.888873l43.500808-41.393503L556.930766 242.283698l-61.864472-63.670733 267.176246-266.875202c91.517272 24.68558 144.199912 88.205792 174.304278 174.605321L669.822137 353.368808M189.055417 60.603851a36.727326 36.727326 0 1 0 0 51.930031 36.727326 36.727326 0 0 0 0-51.930031m581.014258-80.378656L567.918859 182.677054l30.104366 30.104366 209.225342-209.676907-37.178892-22.728796m71.196825 56.897251L632.19168 246.799353l30.104366 30.104366 201.69925-202.45186-22.728796-37.329413m0 0"  horiz-adv-x="1024" />

    
    <glyph glyph-name="bossicon-4" unicode="&#59052;" d="M981.402323 741.26356a27.394973 27.394973 0 0 1-27.244451 27.244451h-13.697487a27.394973 27.394973 0 0 1-27.244451-27.244451v-113.493459A469.327062 469.327062 0 0 1 42.748199 389.193003v-362.607085a27.394973 27.394973 0 0 1 27.244451-27.244451h13.697487a27.394973 27.394973 0 0 1 27.244451 27.244451v113.643981A469.327062 469.327062 0 0 1 981.402323 384.225783v13.697486a26.642364 26.642364 0 0 1 0 3.462002z m-447.651919-587.035131v-77.970308h-47.263854v75.260915a218.256651 218.256651 0 0 0-114.697633 32.96428l18.062619 50.274291A199.892988 199.892988 0 0 1 497.775687 203.599588c53.284727 0 89.259444 30.104366 89.259445 72.852565s-29.201235 66.68117-84.74379 89.259445c-76.465089 30.104366-123.728943 64.423343-123.728943 129.749816 0 62.165515 44.253418 109.429369 113.192415 120.417463v75.260914h46.511245v-72.099956a199.892988 199.892988 0 0 0 97.387623-26.190798L617.139497 543.327356a180.626194 180.626194 0 0 1-94.527708 25.438189c-57.800382 0-79.475526-34.469499-79.475526-64.423343 0-38.985154 27.696016-58.402469 93.02249-85.496399 77.217698-31.459062 116.202852-70.444216 116.202852-137.125386-0.150522-59.3056-41.393503-114.697633-118.611201-127.491988z"  horiz-adv-x="1024" />

    
    <glyph glyph-name="bossicon-5" unicode="&#59053;" d="M219.912392 16.651477H149.01661a72.702043 72.702043 0 0 0-72.702043 72.702044V783.861238A72.702043 72.702043 0 0 0 149.01661 856.412759h583.422608a72.702043 72.702043 0 0 0 72.702043-72.702043v-45.156549h-55.99412v45.156549a17.008967 17.008967 0 0 1-16.707923 16.707923H149.01661a17.008967 17.008967 0 0 1-16.707923-16.557401v-694.507717a17.008967 17.008967 0 0 1 16.707923-16.858445h70.74526zM903.130972 703.031016H319.557842a45.156549 45.156549 0 0 1-45.156548-45.156549v-694.056152a45.156549 45.156549 0 0 1 45.156548-45.156548H903.130972a45.156549 45.156549 0 0 1 45.156548 45.156548V658.175511a45.156549 45.156549 0 0 1-45.156548 44.855505z m-87.754226-171.895929H425.826253v55.994121h389.550493z m0-100.398059H661.242393v55.99412h154.134353zM789.185947 60.603851a68.035867 68.035867 0 0 0-116.052329 52.68264l-77.36822 77.36822a128.545642 128.545642 0 0 0-180.626195 135.469646L463.155667 278.860503a35.071586 35.071586 0 0 1 49.371159 0l54.639424 54.639424a35.071586 35.071586 0 0 1 0 49.371159l-51.327943 51.0269A128.696163 128.696163 0 0 0 656.124651 248.756137l72.702043-72.702043a68.035867 68.035867 0 0 0 60.208732-115.149199z"  horiz-adv-x="1024" />

    
    <glyph glyph-name="bossicon-6" unicode="&#59054;" d="M227.739527 26.284874h-70.74526A72.702043 72.702043 0 0 0 84.292224 98.234308V793.494635A72.702043 72.702043 0 0 0 156.994267 865.895634h583.272086A72.702043 72.702043 0 0 0 812.817874 793.494635v-45.156549h-55.693076v45.156549a17.008967 17.008967 0 0 1-16.858445 16.707923H156.994267a17.008967 17.008967 0 0 1-16.858445-16.707923V98.234308a17.008967 17.008967 0 0 1 16.707923-16.707923h70.74526zM895.002793 712.664413H311.730707a45.156549 45.156549 0 0 1-45.156549-45.156549v-694.056152a45.156549 45.156549 0 0 1 45.156549-45.156548h583.272086a45.156549 45.156549 0 0 1 45.156548 45.156548V667.808908a45.156549 45.156549 0 0 1-45.156548 44.855505z m-477.154197-134.265471h389.550493v-55.843599H417.848596z m0-160.155226h389.550493v-55.843598H417.848596zM892.142878 248.756137L812.817874 223.016904l-111.98824-170.992797-107.171542 135.469646-91.216228-80.830222-116.05233-13.99853-71.497869 50.123769v73.30413l86.700574-66.380126 75.260914 8.128179L602.087314 263.80832l95.129796-117.407026 78.421873 117.407026 116.503895 38.232544z"  horiz-adv-x="1024" />

    
    </font>
</defs>
</svg>
